<svg width="202" height="300" viewBox="0 0 202 300" fill="none" xmlns="http://www.w3.org/2000/svg">
<rect x="45.8848" y="52.6923" width="43.0769" height="43.0769" rx="21.5385" fill="white"/>
<path fill-rule="evenodd" clip-rule="evenodd" d="M58.0771 71.6742C58.0771 66.42 62.2367 62.1154 67.4233 62.1154C72.61 62.1154 76.7695 66.4207 76.7695 71.6748C76.7695 75.4832 74.4909 79.1318 72.3824 81.7209C71.3094 83.0384 70.2391 84.1313 69.4376 84.8947C69.0362 85.2771 68.7006 85.5783 68.4636 85.7854C68.345 85.889 68.251 85.9692 68.1856 86.0243C68.1529 86.0518 68.1274 86.0731 68.1095 86.0879L68.0885 86.1053L68.0824 86.1103L68.0798 86.1124C68.0795 86.1126 68.0793 86.1128 67.4233 85.3077C66.7673 86.1128 66.7671 86.1126 66.7668 86.1124L66.7643 86.1103L66.7582 86.1053L66.7371 86.0879C66.7192 86.0731 66.6937 86.0518 66.661 86.0243C66.5956 85.9692 66.5016 85.889 66.383 85.7854C66.146 85.5783 65.8104 85.277 65.409 84.8947C64.6075 84.1313 63.5372 83.0384 62.4642 81.7208C60.3557 79.1316 58.0771 75.4829 58.0771 71.6742ZM67.4233 85.3077L66.7668 86.1124L67.4233 86.6473L68.0798 86.1124L67.4233 85.3077ZM67.4233 83.9312C67.592 83.7787 67.788 83.5977 68.0051 83.3909C68.7614 82.6705 69.768 81.6421 70.7719 80.4094C72.8172 77.8979 74.6925 74.73 74.6925 71.6748C74.6925 67.5177 71.4136 64.1923 67.4233 64.1923C63.4329 64.1923 60.1541 67.5172 60.1541 71.6742C60.1541 74.7298 62.0294 77.8978 64.0747 80.4093C65.0786 81.6421 66.0852 82.6705 66.8415 83.3908C67.0587 83.5977 67.2546 83.7787 67.4233 83.9312ZM67.4233 68.8937C65.9134 68.8937 64.6448 70.1568 64.6448 71.769C64.6448 73.3827 65.9131 74.6455 67.4233 74.6455C68.9335 74.6455 70.2018 73.3827 70.2018 71.769C70.2018 70.1568 68.9332 68.8937 67.4233 68.8937ZM62.5679 71.769C62.5679 69.0592 64.7175 66.8168 67.4233 66.8168C70.1291 66.8168 72.2787 69.0592 72.2787 71.769C72.2787 74.4797 70.13 76.7224 67.4233 76.7224C64.7166 76.7224 62.5679 74.4797 62.5679 71.769Z" fill="#222225"/>
<path d="M80.8847 202.308H35.4232C28.0309 202.308 22.0386 196.315 22.0386 188.923V24.9231C22.0386 17.5308 28.0309 11.5385 35.4232 11.5385H99.4232C106.815 11.5385 112.808 17.5308 112.808 24.9231V142.308M119.858 184.305L109.657 156.14C107.393 149.893 110.046 143.205 115.577 141.197C121.107 139.19 127.427 142.631 129.69 148.889L143.373 186.682M143.394 186.671L133.111 158.26C131.093 152.678 133.459 146.697 138.406 144.905C143.353 143.112 148.996 146.185 151.024 151.777L164.083 187.829M166.254 193.882L156.585 167.191C154.568 161.609 156.934 155.628 161.88 153.836C166.827 152.043 172.471 155.116 174.498 160.708L185.488 191.045C187.495 196.586 189.134 202.26 190.384 208.005C190.763 209.746 191.06 211.488 191.316 213.249C192.719 222.58 197.696 254.76 200.82 263.383M89.1833 225.918L82.8435 208.405C77.8045 193.001 82.5875 185.821 91.2214 182.698L94.3657 181.561M89.1936 225.918L96.7522 244.231C100.47 253.234 107.148 260.69 115.689 265.36L131.022 273.748C135.385 276.135 138.734 280.047 140.434 284.727L142.039 288.846M120.913 187.194L95.4514 116.893C93.3313 111.045 86.8686 108.013 81.0205 110.133C75.1724 112.254 72.1407 118.716 74.2608 124.564L104.249 207.381" stroke="white" stroke-width="2" stroke-linecap="round" stroke-linejoin="round"/>
</svg>
