<svg width="201" height="300" viewBox="0 0 201 300" fill="none" xmlns="http://www.w3.org/2000/svg">
<path d="M22.0385 70.3846V14.5384C22.0385 7.14612 28.0308 1.15381 35.4231 1.15381H99.4231C106.815 1.15381 112.808 7.14612 112.808 14.5384V86.4307M22.0385 116.523V98.1769M22.0385 170.738V166.823M112.808 158.608V178.538M112.808 178.538C112.808 185.931 106.815 191.923 99.4231 191.923M112.808 178.538V121.923M99.4231 191.923H48.3539M99.4231 191.923H38.9616M196.4 282.985L151.638 226.469C148.915 223.038 147.554 218.731 147.792 214.354C148.346 204.4 149.462 185.338 150.638 169.8C152.315 147.677 125.862 93.9615 125.862 93.9615C122.815 88.0769 118.931 84.4846 112.823 86.423H112.808C107.423 88.0846 107.423 97.3154 108.962 108.838C108.962 108.838 110.523 116.692 112.808 122.092C113.346 123.369 113.923 124.508 114.531 125.377C116.262 127.846 118.154 130.677 118.446 133.677C119.208 141.585 121.269 154.223 121.269 154.223M30.5 201.154L57.1847 229.685C62.2231 235.077 68.8923 238.662 76.1693 239.885C84.8847 241.346 92.777 245.892 98.4 252.708L135.885 298.085M22.5077 140.762C23.0693 141.254 23.577 141.823 24.0154 142.469L30.8154 152.492C33.6077 156.608 32.5385 162.208 28.4231 165C24.3077 167.792 18.7077 166.723 15.9154 162.608L9.11542 152.585C6.32311 148.469 7.39235 142.869 11.5077 140.077C12.377 139.492 13.3077 139.069 14.2616 138.823M19.7308 114.231L27.7385 126.331C30.5308 130.446 29.4616 136.046 25.3462 138.838C21.2308 141.631 15.6308 140.562 12.8385 136.446L6.26927 126.362C5.97696 125.908 5.72311 125.431 5.51542 124.938C5.06158 123.854 4.34619 121.938 4.34619 120.615V114.846C4.34619 109.877 8.37696 105.846 13.3462 105.846L20.8847 105.777M24.5077 177.838L34.6 184.531C38.7462 187.277 39.877 192.869 37.1231 197.008C34.377 201.154 28.7847 202.285 24.6462 199.531L14.5539 192.838C12.2616 191.323 10.8923 188.931 10.5923 186.408L10.5 185.223V179.454C10.5 174.485 14.5308 170.454 19.5 170.454H22.0385V176.154L24.5077 177.838ZM21.2693 69.6153H18.577C13.6923 69.6153 9.73081 75.8846 9.73081 80.7692V81.5384C9.73081 83.8769 10.5616 86.4923 12.0385 88.0769L21.2231 97.2615C24.7308 100.769 30.4077 100.769 33.9154 97.2615C37.4231 93.7538 37.4231 85.7692 33.9154 82.2615L21.2693 69.6153Z" stroke="white" stroke-width="2" stroke-linecap="round" stroke-linejoin="round"/>
<path fill-rule="evenodd" clip-rule="evenodd" d="M77.9728 100.11H73.9068V96.044H69.8409V100.11H65.775V104.176H69.8409V108.242H61.709V100.11H53.5771V83.8462H69.8409V91.9781H73.9068V87.9121H77.9728V91.9781H82.0387V104.176H77.9728V100.11ZM57.6431 87.9121V96.044H65.775V87.9121H57.6431ZM77.9728 83.8462H82.0387V87.9121H77.9728V83.8462ZM69.8409 100.11H73.9068V104.176H69.8409V100.11ZM53.5771 104.176H57.6431V108.242H53.5771V104.176ZM57.6431 108.242H61.709V112.308H57.6431V108.242ZM77.9728 108.242H82.0387V112.308H77.9728V108.242ZM69.8409 108.242H73.9068V112.308H69.8409V108.242ZM59.676 89.9451H63.742V94.011H59.676V89.9451Z" fill="white"/>
<path d="M44.3462 74.6154V73.1154H42.8462V74.6154H44.3462ZM91.2693 121.538V123.038H92.7693V121.538H91.2693ZM91.2693 74.6154H92.7693V73.1154L91.2693 73.1154L91.2693 74.6154ZM44.3462 121.538L42.8462 121.538L42.8462 123.038H44.3462V121.538ZM57.5433 73.1154H44.3462V76.1154H57.5433V73.1154ZM42.8462 74.6154V87.8125H45.8462V74.6154H42.8462ZM78.0722 123.038H91.2693V120.038H78.0722V123.038ZM92.7693 121.538V108.341H89.7693V121.538H92.7693ZM92.7693 87.8125V74.6154H89.7693V87.8125H92.7693ZM91.2693 73.1154L78.0722 73.1154L78.0722 76.1154L91.2693 76.1154L91.2693 73.1154ZM42.8462 108.341L42.8462 121.538L45.8462 121.538L45.8462 108.341L42.8462 108.341ZM44.3462 123.038H57.5433V120.038H44.3462V123.038Z" fill="white"/>
</svg>
