<svg width="201" height="204" viewBox="0 0 201 204" fill="none" xmlns="http://www.w3.org/2000/svg">
<g clip-path="url(#clip0_1890_4897)">
<path d="M37.2603 93.8904C37.2603 93.8904 37.3203 94.1904 37.3503 94.3104C44.072 128.151 75.1296 159.771 100.246 186.231C125.362 159.771 156.39 128.151 163.141 94.3104C163.141 94.1604 163.201 94.0104 163.231 93.8904C163.591 91.9703 163.921 90.0203 164.101 88.1003C164.131 87.8003 164.161 87.4703 164.191 87.1703C164.372 85.1903 164.492 83.2103 164.492 81.2303C164.462 45.7401 135.714 17 100.216 17C64.717 17 36 45.7401 36 81.2003C36 83.1803 36.12 85.1603 36.3001 87.1403C36.3001 87.4403 36.3601 87.7703 36.3901 88.0703C36.6001 90.0203 36.9002 91.9403 37.2603 93.8604V93.8904Z" fill="white"/>
<path fill-rule="evenodd" clip-rule="evenodd" d="M97.4851 84.2302H70.1484V56.8701H97.5152V84.2302H97.4851ZM92.0238 62.3601H75.6098V78.7702H92.0238V62.3601ZM97.4851 117.05H70.1484V89.6903H97.5152V117.05H97.4851ZM92.0238 95.1803H75.6098V111.59H92.0238V95.1803ZM130.313 56.9001H102.946V84.2602H130.313V56.8701V56.9001ZM124.852 78.7702H108.438V62.3601H124.852V78.7702ZM81.0711 67.8202H86.5325V73.2802H81.0711V67.8202ZM119.361 67.8202H113.899V73.2802H119.361V67.8202ZM81.0711 100.64H86.5325V106.1H81.0711V100.64V100.64ZM113.899 95.1803H119.361V100.64H108.408V95.1803H102.946V89.7203H113.899V95.1803ZM108.438 117.05H113.899V106.1H108.438V100.64H102.976V111.59H108.438V117.05ZM124.852 111.59H119.391V117.05H124.852V111.59ZM124.852 89.7203H130.313V95.1803H124.852V89.7203ZM124.852 111.59V106.13H119.391V100.67H130.343V111.62H124.882L124.852 111.59Z" fill="black"/>
</g>
<defs>
<clipPath id="clip0_1890_4897">
<rect width="128.462" height="169.231" fill="white" transform="translate(36 17)"/>
</clipPath>
</defs>
</svg>
