<svg width="139" height="262" viewBox="0 0 139 262" fill="none" xmlns="http://www.w3.org/2000/svg">
<path d="M37.3958 18V17C36.8435 17 36.3958 17.4477 36.3958 18H37.3958ZM101 18H102C102 17.4477 101.552 17 101 17V18ZM31.125 19H106.375V17H31.125V19ZM121.5 34.097V225.472H123.5V34.097H121.5ZM106.375 240.569H31.125V242.569H106.375V240.569ZM16 225.472V34.097H14V225.472H16ZM31.125 240.569C22.7701 240.569 16 233.808 16 225.472H14C14 234.916 21.6688 242.569 31.125 242.569V240.569ZM121.5 225.472C121.5 233.808 114.73 240.569 106.375 240.569V242.569C115.831 242.569 123.5 234.916 123.5 225.472H121.5ZM106.375 19C114.73 19 121.5 25.7608 121.5 34.097H123.5C123.5 24.6529 115.831 17 106.375 17V19ZM31.125 17C21.6688 17 14 24.6529 14 34.097H16C16 25.7608 22.7701 19 31.125 19V17ZM37.3958 19H101V17H37.3958V19ZM100 18V21.5771H102V18H100ZM95.625 25.9428H42.7708V27.9428H95.625V25.9428ZM38.3958 21.5771V18H36.3958V21.5771H38.3958ZM42.7708 25.9428C40.3529 25.9428 38.3958 23.9865 38.3958 21.5771H36.3958C36.3958 25.0944 39.2517 27.9428 42.7708 27.9428V25.9428ZM100 21.5771C100 23.9865 98.0429 25.9428 95.625 25.9428V27.9428C99.1442 27.9428 102 25.0944 102 21.5771H100Z" fill="white"/>
<path d="M91.6954 133.546C91.6954 145.643 81.8794 155.451 69.7688 155.451C57.6583 155.451 47.8423 145.643 47.8423 133.546C47.8423 121.448 57.6583 111.64 69.7688 111.64C81.8794 111.64 91.6954 121.448 91.6954 133.546Z" stroke="white" stroke-width="2"/>
<path d="M60.0889 128.494L68.6148 137.108L101.866 103.514" stroke="white" stroke-width="2" stroke-linecap="round"/>
</svg>
