<svg width="161" height="241" viewBox="0 0 161 241" fill="none" xmlns="http://www.w3.org/2000/svg">
<path d="M88.0899 127.422L150.654 164.192L80.5 205.423L10.3462 164.192L72.9784 127.382M80.5 39.2692V58.9153M122.275 56.5714L108.383 70.4628M139.577 98.3462H119.931M122.275 140.121L108.383 126.23M80.5 157.423V137.777M38.7252 140.121L52.6167 126.23M21.4231 98.3462H41.0692M38.7252 56.5714L52.6167 70.4628M80.5 68.4489C63.9872 68.4489 50.6028 81.8333 50.6028 98.3461C50.6028 114.859 63.9872 128.243 80.5 128.243C97.0129 128.243 110.397 114.859 110.397 98.3461C110.397 81.8333 97.0129 68.4489 80.5 68.4489Z" stroke="white" stroke-width="2" stroke-miterlimit="10" stroke-linecap="round" stroke-linejoin="round"/>
</svg>
