<svg width="161" height="241" viewBox="0 0 161 241" fill="none" xmlns="http://www.w3.org/2000/svg">
<path d="M16.7305 56.8077C16.7305 57.36 17.1782 57.8077 17.7305 57.8077C18.2828 57.8077 18.7305 57.36 18.7305 56.8077H16.7305ZM89.3459 69.6446C89.3459 70.1969 89.7936 70.6446 90.3459 70.6446C90.8982 70.6446 91.3459 70.1969 91.3459 69.6446H89.3459ZM16.7305 93.7185C16.7305 94.2708 17.1782 94.7185 17.7305 94.7185C18.2828 94.7185 18.7305 94.2708 18.7305 93.7185H16.7305ZM18.7305 79.0416C18.7305 78.4893 18.2828 78.0416 17.7305 78.0416C17.1782 78.0416 16.7305 78.4893 16.7305 79.0416H18.7305ZM16.7305 137.091C16.7305 137.643 17.1782 138.091 17.7305 138.091C18.2828 138.091 18.7305 137.643 18.7305 137.091H16.7305ZM18.7305 133.958C18.7305 133.406 18.2828 132.958 17.7305 132.958C17.1782 132.958 16.7305 133.406 16.7305 133.958H18.7305ZM91.3459 127.386C91.3459 126.834 90.8982 126.386 90.3459 126.386C89.7936 126.386 89.3459 126.834 89.3459 127.386H91.3459ZM38.7828 153.038C38.2305 153.038 37.7828 153.486 37.7828 154.038C37.7828 154.591 38.2305 155.038 38.7828 155.038V153.038ZM156.436 227.509C156.779 227.942 157.408 228.015 157.841 227.672C158.274 227.329 158.347 226.7 158.004 226.267L156.436 227.509ZM121.411 181.675L122.194 181.055L122.194 181.054L121.411 181.675ZM118.334 171.983L117.335 171.928L117.335 171.929L118.334 171.983ZM120.611 136.34L119.613 136.264L119.613 136.264L120.611 136.34ZM100.789 75.6692L101.686 75.2274C101.683 75.2214 101.68 75.2155 101.677 75.2095L100.789 75.6692ZM90.3582 69.6385V70.6385C90.4608 70.6385 90.5629 70.6227 90.6607 70.5916L90.3582 69.6385ZM90.3459 69.6385V68.6385C90.2459 68.6385 90.1466 68.6535 90.051 68.6829L90.3459 69.6385ZM87.269 87.5708L86.2778 87.7031C86.2806 87.7241 86.284 87.745 86.2882 87.7658L87.269 87.5708ZM90.3459 98.1739L91.2673 97.7853L91.2669 97.7842L90.3459 98.1739ZM91.7244 100.802L90.9048 101.375L90.9055 101.376L91.7244 100.802ZM94.8567 107.442L95.8521 107.346L95.852 107.345L94.8567 107.442ZM96.1282 124.039C96.2171 124.585 96.731 124.954 97.2761 124.865C97.8212 124.777 98.191 124.263 98.1021 123.717L96.1282 124.039ZM25.2301 160.74C24.8528 160.337 24.22 160.315 23.8167 160.693C23.4133 161.07 23.3921 161.703 23.7694 162.106L25.2301 160.74ZM45.8474 184.248L46.5781 183.565L46.5778 183.565L45.8474 184.248ZM61.0351 192.408L60.8694 193.394L60.8697 193.394L61.0351 192.408ZM78.8197 202.666L78.0484 203.303L78.0488 203.303L78.8197 202.666ZM108.036 239.605C108.388 240.03 109.019 240.09 109.444 239.739C109.87 239.387 109.93 238.757 109.578 238.331L108.036 239.605ZM91.3459 98.0385C91.3459 97.4862 90.8982 97.0385 90.3459 97.0385C89.7936 97.0385 89.3459 97.4862 89.3459 98.0385H91.3459ZM31.269 153.038C30.7167 153.038 30.269 153.486 30.269 154.038C30.269 154.591 30.7167 155.038 31.269 155.038V153.038ZM18.7652 112.357C18.3499 111.993 17.7181 112.035 17.354 112.45C16.9899 112.865 17.0314 113.497 17.4467 113.861L18.7652 112.357ZM19.3121 114.475L20.1396 113.914L20.1396 113.914L19.3121 114.475ZM24.7521 122.494L23.9246 123.055L23.9246 123.055L24.7521 122.494ZM12.8321 130.586L12.0046 131.148L12.0046 131.148L12.8321 130.586ZM7.3921 122.568L8.21963 122.006L8.2196 122.006L7.3921 122.568ZM9.30595 112.562L8.74786 111.732L8.74448 111.734L9.30595 112.562ZM11.7589 112.527C12.2937 112.389 12.6153 111.843 12.4773 111.309C12.3393 110.774 11.7939 110.452 11.2591 110.59L11.7589 112.527ZM19.7059 142.771L19.1423 143.597L19.1532 143.604L19.7059 142.771ZM27.7797 148.125L27.2271 148.958L27.2275 148.958L27.7797 148.125ZM29.7982 158.106L28.9657 157.552L28.9645 157.554L29.7982 158.106ZM19.8167 160.125L20.3706 159.292L20.3693 159.291L19.8167 160.125ZM11.7428 154.771L12.2955 153.937L12.2943 153.937L11.7428 154.771ZM8.57358 149.626L7.57661 149.704C7.57766 149.717 7.57898 149.731 7.58058 149.744L8.57358 149.626ZM8.49974 148.678H7.49974C7.49974 148.704 7.50075 148.73 7.50276 148.756L8.49974 148.678ZM17.7305 136.863H18.7305C18.7305 136.311 18.2828 135.863 17.7305 135.863V136.863ZM17.7305 141.423H16.7305C16.7305 141.754 16.8939 142.063 17.1669 142.249L17.7305 141.423ZM16.7183 91.3328C16.4135 90.8722 15.793 90.7459 15.3325 91.0507C14.8719 91.3555 14.7456 91.976 15.0504 92.4365L16.7183 91.3328ZM22.2905 101.565L21.4565 102.117L21.463 102.126L22.2905 101.565ZM10.3705 109.657L9.5326 110.203C9.53602 110.208 9.53949 110.213 9.54301 110.218L10.3705 109.657ZM5.11512 101.589L4.2744 102.131L4.27722 102.135L5.11512 101.589ZM4.51204 100.451L3.58955 100.837L3.59068 100.839L4.51204 100.451ZM10.7767 85.177L10.7767 86.177L10.7858 86.1769L10.7767 85.177ZM16.8166 86.1215C17.3689 86.1164 17.8125 85.6646 17.8074 85.1124C17.8023 84.5601 17.3505 84.1165 16.7982 84.1216L16.8166 86.1215ZM17.1151 56.1923L17.8222 55.4852C17.6347 55.2977 17.3803 55.1923 17.1151 55.1923V56.1923ZM9.73051 70.9616L8.99898 71.6434C9.00697 71.6519 9.01511 71.6604 9.0234 71.6687L9.73051 70.9616ZM17.0782 78.3092L16.3711 79.0164L16.3711 79.0164L17.0782 78.3092ZM27.232 66.3092L26.5249 67.0164L26.5249 67.0164L27.232 66.3092ZM53.7305 45.4231L54.2392 44.5622C53.9254 44.3767 53.5356 44.3767 53.2218 44.5622L53.7305 45.4231ZM26.6536 61.4231L26.1449 60.5622C25.8404 60.7421 25.6536 61.0694 25.6536 61.4231H26.6536ZM80.8074 61.4231H81.8074C81.8074 61.0694 81.6206 60.7421 81.3162 60.5622L80.8074 61.4231ZM80.8074 94.9616L81.3162 95.8225C81.6206 95.6426 81.8074 95.3152 81.8074 94.9616H80.8074ZM53.7305 110.962L53.2218 111.822C53.5356 112.008 53.9254 112.008 54.2392 111.822L53.7305 110.962ZM26.6536 94.9616H25.6536C25.6536 95.3152 25.8404 95.6426 26.1449 95.8225L26.6536 94.9616ZM18.7305 56.8077V12.1308H16.7305V56.8077H18.7305ZM18.7305 12.1308C18.7305 6.76923 23.0766 2.4231 28.4382 2.4231V0.423096C21.9721 0.423096 16.7305 5.66466 16.7305 12.1308H18.7305ZM28.4382 2.4231H79.6382V0.423096H28.4382V2.4231ZM79.6382 2.4231C84.9998 2.4231 89.3459 6.76923 89.3459 12.1308H91.3459C91.3459 5.66466 86.1043 0.423096 79.6382 0.423096V2.4231ZM89.3459 12.1308V69.6446H91.3459V12.1308H89.3459ZM18.7305 93.7185V79.0416H16.7305V93.7185H18.7305ZM18.7305 137.091V133.958H16.7305V137.091H18.7305ZM89.3459 127.386V143.331H91.3459V127.386H89.3459ZM89.3459 143.331C89.3459 148.692 84.9998 153.038 79.6382 153.038V155.038C86.1043 155.038 91.3459 149.797 91.3459 143.331H89.3459ZM79.6382 153.038H38.7828V155.038H79.6382V153.038ZM158.004 226.267L122.194 181.055L120.627 182.296L156.436 227.509L158.004 226.267ZM122.194 181.054C120.168 178.502 119.155 175.297 119.332 172.037L117.335 171.929C117.131 175.673 118.296 179.36 120.627 182.297L122.194 181.054ZM119.332 172.039C119.775 164.077 120.667 148.836 121.608 136.416L119.613 136.264C118.671 148.706 117.778 163.963 117.335 171.928L119.332 172.039ZM121.608 136.416C121.957 131.81 120.845 125.666 119.043 119.128C117.235 112.563 114.701 105.495 112.133 99C109.563 92.5019 106.952 86.561 104.985 82.2453C104 80.0871 103.177 78.3343 102.599 77.1203C102.309 76.5133 102.082 76.041 101.926 75.7199C101.848 75.5594 101.789 75.4367 101.748 75.354C101.728 75.3126 101.712 75.2812 101.702 75.26C101.697 75.2494 101.693 75.2414 101.69 75.2359C101.689 75.2332 101.688 75.2311 101.687 75.2297C101.687 75.229 101.687 75.2284 101.686 75.2281C101.686 75.2277 101.686 75.2274 100.789 75.6692C99.8919 76.1111 99.8919 76.1111 99.892 76.1114C99.8922 76.1117 99.8924 76.1121 99.8927 76.1127C99.8933 76.1139 99.8942 76.1157 99.8954 76.1182C99.8978 76.1232 99.9016 76.1308 99.9065 76.1409C99.9165 76.1612 99.9314 76.1917 99.9512 76.2322C99.9907 76.3131 100.05 76.4338 100.126 76.5924C100.28 76.9095 100.506 77.3777 100.793 77.9802C101.367 79.1855 102.186 80.9281 103.165 83.0751C105.123 87.3698 107.719 93.2781 110.273 99.7354C112.827 106.196 115.333 113.19 117.115 119.659C118.905 126.156 119.935 132.021 119.613 136.264L121.608 136.416ZM101.677 75.2095C100.429 72.799 98.946 70.724 97.0416 69.4715C95.0793 68.1808 92.7646 67.8256 90.0557 68.6853L90.6607 70.5916C92.838 69.9006 94.5202 70.2069 95.9425 71.1424C97.4227 72.116 98.7118 73.8317 99.9009 76.1289L101.677 75.2095ZM90.3582 68.6385H90.3459V70.6385H90.3582V68.6385ZM90.051 68.6829C87.2909 69.5346 86.1319 72.2826 85.7378 75.5255C85.3368 78.8251 85.661 83.0835 86.2778 87.7031L88.2602 87.4384C87.6462 82.8396 87.355 78.7965 87.7232 75.7668C88.0983 72.6805 89.0932 71.0715 90.6407 70.594L90.051 68.6829ZM87.269 87.5708C86.2882 87.7658 86.2882 87.7659 86.2882 87.766C86.2882 87.7661 86.2883 87.7662 86.2883 87.7664C86.2883 87.7666 86.2884 87.767 86.2885 87.7675C86.2887 87.7685 86.289 87.7698 86.2893 87.7715C86.29 87.7749 86.291 87.7799 86.2923 87.7863C86.2949 87.7991 86.2986 87.8178 86.3036 87.8421C86.3135 87.8908 86.3282 87.9622 86.3474 88.0541C86.3859 88.2379 86.4427 88.5041 86.5165 88.8366C86.664 89.5014 86.8797 90.4325 87.1533 91.5005C87.6979 93.6261 88.4817 96.3341 89.4249 98.5635L91.2669 97.7842C90.3824 95.6936 89.6277 93.1001 89.0908 91.0041C88.8236 89.9613 88.6128 89.0517 88.469 88.4034C88.3971 88.0794 88.342 87.821 88.305 87.6443C88.2865 87.556 88.2726 87.4881 88.2633 87.4427C88.2587 87.4199 88.2552 87.4028 88.2529 87.3916C88.2518 87.386 88.251 87.3818 88.2505 87.3792C88.2502 87.3779 88.25 87.3769 88.2499 87.3763C88.2498 87.3761 88.2498 87.3759 88.2498 87.3758C88.2498 87.3757 88.2498 87.3757 88.2498 87.3757C88.2498 87.3757 88.2498 87.3758 87.269 87.5708ZM89.4245 98.5624C89.868 99.6142 90.3613 100.597 90.9048 101.375L92.5439 100.229C92.1151 99.6152 91.6853 98.7766 91.2673 97.7853L89.4245 98.5624ZM90.9055 101.376C92.3153 103.387 93.6571 105.442 93.8614 107.539L95.852 107.345C95.5886 104.641 93.9027 102.167 92.5432 100.228L90.9055 101.376ZM93.8613 107.537C94.1684 110.727 94.7362 114.857 95.225 118.178C95.4698 119.841 95.6955 121.306 95.86 122.355C95.9422 122.879 96.0092 123.3 96.0557 123.59C96.0789 123.735 96.097 123.847 96.1093 123.923C96.1154 123.961 96.1201 123.99 96.1233 124.01C96.1249 124.019 96.1261 124.027 96.1269 124.032C96.1273 124.034 96.1276 124.036 96.1278 124.037C96.1279 124.038 96.128 124.039 96.1281 124.039C96.1281 124.039 96.1281 124.039 96.1281 124.039C96.1282 124.039 96.1282 124.039 97.1151 123.878C98.1021 123.717 98.1021 123.717 98.1021 123.717C98.1021 123.717 98.102 123.717 98.102 123.717C98.102 123.717 98.1019 123.716 98.1018 123.716C98.1016 123.715 98.1013 123.713 98.1009 123.71C98.1002 123.706 98.099 123.698 98.0974 123.689C98.0943 123.67 98.0897 123.641 98.0836 123.604C98.0715 123.529 98.0535 123.417 98.0305 123.273C97.9843 122.986 97.9177 122.567 97.8358 122.045C97.6721 121 97.4474 119.542 97.2037 117.887C96.7156 114.571 96.1541 110.482 95.8521 107.346L93.8613 107.537ZM23.7694 162.106L45.1171 184.931L46.5778 183.565L25.2301 160.74L23.7694 162.106ZM45.1168 184.93C49.2973 189.405 54.8311 192.379 60.8694 193.394L61.2009 191.422C55.5961 190.48 50.4591 187.719 46.5781 183.565L45.1168 184.93ZM60.8697 193.394C67.6052 194.523 73.7037 198.037 78.0484 203.303L79.5911 202.03C74.9389 196.391 68.4096 192.63 61.2005 191.421L60.8697 193.394ZM78.0488 203.303L108.036 239.605L109.578 238.331L79.5907 202.029L78.0488 203.303ZM89.3459 98.0385V143.331H91.3459V98.0385H89.3459ZM79.6382 153.038H31.269V155.038H79.6382V153.038ZM17.4467 113.861C17.833 114.2 18.1823 114.591 18.4846 115.037L20.1396 113.914C19.7403 113.326 19.2774 112.806 18.7652 112.357L17.4467 113.861ZM18.4846 115.037L23.9246 123.055L25.5796 121.932L20.1396 113.914L18.4846 115.037ZM23.9246 123.055C25.8487 125.891 25.1115 129.749 22.2768 131.672L23.3997 133.327C27.1496 130.783 28.1232 125.681 25.5796 121.932L23.9246 123.055ZM22.2768 131.672C19.4409 133.597 15.583 132.859 13.6596 130.025L12.0046 131.148C14.5489 134.897 19.651 135.871 23.3997 133.327L22.2768 131.672ZM13.6596 130.025L8.21963 122.006L6.56457 123.129L12.0046 131.148L13.6596 130.025ZM8.2196 122.006C6.29546 119.17 7.03268 115.312 9.86741 113.389L8.74448 111.734C4.9946 114.278 4.02105 119.38 6.5646 123.129L8.2196 122.006ZM9.86403 113.391C10.4707 112.983 11.1119 112.694 11.7589 112.527L11.2591 110.59C10.38 110.817 9.53194 111.204 8.74786 111.732L9.86403 113.391ZM19.1532 143.604L27.2271 148.958L28.3324 147.291L20.2585 141.937L19.1532 143.604ZM27.2275 148.958C30.0836 150.85 30.8621 154.702 28.9657 157.552L30.6307 158.66C33.1404 154.889 32.1097 149.793 28.3319 147.291L27.2275 148.958ZM28.9645 157.554C27.0728 160.41 23.2206 161.189 20.3706 159.292L19.2627 160.957C23.0342 163.467 28.1298 162.436 30.6319 158.658L28.9645 157.554ZM20.3693 159.291L12.2955 153.937L11.1902 155.604L19.264 160.958L20.3693 159.291ZM12.2943 153.937C10.7167 152.894 9.77345 151.248 9.56659 149.508L7.58058 149.744C7.85372 152.041 9.10123 154.223 11.1913 155.605L12.2943 153.937ZM9.57056 149.548L9.49672 148.601L7.50276 148.756L7.57661 149.704L9.57056 149.548ZM9.49974 148.678V144.063H7.49974V148.678H9.49974ZM9.49974 144.063C9.49974 140.64 12.2766 137.863 15.6997 137.863V135.863C11.1721 135.863 7.49974 139.535 7.49974 144.063H9.49974ZM15.6997 137.863H17.7305V135.863H15.6997V137.863ZM16.7305 136.863V141.423H18.7305V136.863H16.7305ZM17.1669 142.249L19.1423 143.597L20.2695 141.945L18.2941 140.597L17.1669 142.249ZM15.0504 92.4365L21.4566 102.117L23.1244 101.013L16.7183 91.3328L15.0504 92.4365ZM21.463 102.126C23.3871 104.962 22.6499 108.82 19.8152 110.743L20.9381 112.398C24.688 109.854 25.6616 104.752 23.118 101.003L21.463 102.126ZM19.8152 110.743C16.9793 112.667 13.1214 111.93 11.198 109.095L9.54301 110.218C12.0873 113.968 17.1894 114.942 20.9381 112.398L19.8152 110.743ZM11.2084 109.111L5.95302 101.043L4.27722 102.135L9.5326 110.203L11.2084 109.111ZM5.95584 101.048C5.75181 100.731 5.57614 100.4 5.43341 100.062L3.59068 100.839C3.78025 101.289 4.01074 101.721 4.27441 102.131L5.95584 101.048ZM5.43454 100.065C5.26031 99.6484 5.04038 99.0829 4.86547 98.5039C4.68525 97.9073 4.57666 97.3724 4.57666 96.9923H2.57666C2.57666 97.6707 2.75423 98.4312 2.95093 99.0823C3.15294 99.751 3.4007 100.385 3.58955 100.837L5.43454 100.065ZM4.57666 96.9923V92.3769H2.57666V96.9923H4.57666ZM4.57666 92.3769C4.57666 88.9538 7.35356 86.177 10.7767 86.177V84.177C6.24899 84.177 2.57666 87.8493 2.57666 92.3769H4.57666ZM10.7858 86.1769L16.8166 86.1215L16.7982 84.1216L10.7675 84.177L10.7858 86.1769ZM17.1151 55.1923H14.9613V57.1923H17.1151V55.1923ZM14.9613 55.1923C12.5646 55.1923 10.5323 56.7181 9.1517 58.5962C7.7626 60.4859 6.88435 62.9202 6.88435 65.1154H8.88435C8.88435 63.403 9.59073 61.3757 10.7632 59.7808C11.9441 58.1742 13.4503 57.1923 14.9613 57.1923V55.1923ZM6.88435 65.1154V65.7308H8.88435V65.1154H6.88435ZM6.88435 65.7308C6.88435 67.7867 7.60362 70.1463 8.99898 71.6434L10.462 70.2797C9.49431 69.2415 8.88435 67.4164 8.88435 65.7308H6.88435ZM9.0234 71.6687L16.3711 79.0164L17.7853 77.6021L10.4376 70.2544L9.0234 71.6687ZM16.3711 79.0164C19.5678 82.213 24.7425 82.213 27.9392 79.0164L26.5249 77.6021C24.1093 80.0178 20.2009 80.0178 17.7853 77.6021L16.3711 79.0164ZM27.9392 79.0164C29.5922 77.3633 30.3367 74.7691 30.3367 72.3092C30.3367 69.8494 29.5922 67.2552 27.9392 65.6021L26.5249 67.0164C27.678 68.1694 28.3367 70.1722 28.3367 72.3092C28.3367 74.4463 27.678 76.4491 26.5249 77.6021L27.9392 79.0164ZM27.9392 65.6021L17.8222 55.4852L16.408 56.8994L26.5249 67.0164L27.9392 65.6021ZM53.2218 44.5622L26.1449 60.5622L27.1623 62.284L54.2392 46.284L53.2218 44.5622ZM26.1449 62.284L53.2218 78.284L54.2392 76.5622L27.1623 60.5622L26.1449 62.284ZM53.2218 46.284L80.2987 62.284L81.3162 60.5622L54.2392 44.5622L53.2218 46.284ZM80.2987 60.5622L53.2218 76.5622L54.2392 78.284L81.3162 62.284L80.2987 60.5622ZM80.2987 94.1006L53.2218 110.101L54.2392 111.822L81.3162 95.8225L80.2987 94.1006ZM54.7305 110.962V77.4231H52.7305V110.962H54.7305ZM81.8074 94.9616V61.4231H79.8074V94.9616H81.8074ZM26.1449 95.8225L53.2218 111.822L54.2392 110.101L27.1623 94.1006L26.1449 95.8225ZM25.6536 78.9616V94.9616H27.6536V78.9616H25.6536ZM25.6536 61.4231V65.6154H27.6536V61.4231H25.6536Z" fill="white"/>
</svg>
