<svg width="161" height="241" viewBox="0 0 161 241" fill="none" xmlns="http://www.w3.org/2000/svg">
<path d="M17.731 56.8076V12.1307C17.731 6.21688 22.5248 1.42303 28.4387 1.42303H79.6387C85.5525 1.42303 90.3464 6.21688 90.3464 12.1307V69.6446M17.731 93.7184V79.0415M17.731 137.091V133.958M90.3464 127.386V143.331M90.3464 143.331C90.3464 149.245 85.5525 154.038 79.6387 154.038M90.3464 143.331V98.0384M79.6387 154.038H38.7833M79.6387 154.038H31.2695M157.22 226.888L121.411 181.675C119.233 178.931 118.143 175.485 118.334 171.983C118.777 164.02 119.669 148.771 120.611 136.34C121.953 118.641 100.789 75.6692 100.789 75.6692C98.3525 70.9615 95.2448 68.0876 90.3587 69.6384H90.3464C86.0387 70.9676 86.0387 78.3523 87.2695 87.5707C87.2695 87.5707 88.5187 93.8538 90.3464 98.1738C90.7771 99.1953 91.2387 100.106 91.7248 100.801C93.1095 102.777 94.6233 105.041 94.8571 107.441C95.4664 113.768 97.1156 123.878 97.1156 123.878M24.5002 161.423L45.8479 184.248C49.8787 188.561 55.2141 191.429 61.0356 192.408C68.0079 193.577 74.3218 197.214 78.8202 202.666L108.808 238.968M18.1064 113.109C18.5557 113.503 18.9618 113.958 19.3126 114.475L24.7526 122.494C26.9864 125.786 26.131 130.266 22.8387 132.5C19.5464 134.734 15.0664 133.878 12.8326 130.586L7.39259 122.568C5.15874 119.275 6.01413 114.795 9.30643 112.561C10.0018 112.094 10.7464 111.755 11.5095 111.558M15.8848 91.8846L22.291 101.565C24.5248 104.857 23.6695 109.337 20.3771 111.571C17.0848 113.805 12.6048 112.949 10.371 109.657L5.11561 101.589C4.88176 101.226 4.67869 100.845 4.51253 100.451C4.14946 99.583 3.57715 98.0507 3.57715 96.9923V92.3769C3.57715 88.4015 6.80176 85.1769 10.7771 85.1769L16.8079 85.1215M83.4862 21.423L56.8079 37.423M56.8079 37.423L83.4862 53.423M56.8079 37.423V78.9102L83.2695 94.6538M56.8079 37.423L83.2695 53.1667M123.885 37.423L97.2065 53.423M123.885 37.423L97.2065 21.423M123.885 37.423V78.9102L106.962 88.9788M123.885 37.423L97.4233 53.1667M130.039 7.26919L119.577 17.7307M119.577 98.9615L130.039 109.423M142.346 58.3461H154.654M19.7064 142.771L27.7802 148.125C31.0971 150.321 32.0018 154.795 29.7987 158.106C27.6018 161.423 23.1279 162.328 19.8171 160.125L11.7433 154.771C9.90946 153.558 8.81407 151.645 8.57407 149.626L8.50023 148.678V144.063C8.50023 140.088 11.7248 136.863 15.7002 136.863H17.731V141.423L19.7064 142.771ZM17.1156 56.1923H14.9618C11.0541 56.1923 7.88484 61.2076 7.88484 65.1153V65.7307C7.88484 67.6015 8.54946 69.6938 9.73099 70.9615L17.0787 78.3092C19.8848 81.1153 24.4264 81.1153 27.2325 78.3092C30.0387 75.503 30.0387 69.1153 27.2325 66.3092L17.1156 56.1923Z" stroke="white" stroke-width="2" stroke-linecap="round" stroke-linejoin="round"/>
</svg>
