<svg width="162" height="241" viewBox="0 0 162 241" fill="none" xmlns="http://www.w3.org/2000/svg">
<rect x="24.269" y="55.0385" width="59.5385" height="18" stroke="white" stroke-width="2"/>
<path d="M35.5879 66.9615L35.142 65.4976H32.8998L32.4539 66.9615H31.0488L33.2195 60.7861H34.8139L36.9929 66.9615H35.5879ZM34.8307 64.4038C34.4184 63.0773 34.1856 62.3271 34.1324 62.1532C34.0819 61.9794 34.0454 61.842 34.023 61.741C33.9304 62.1 33.6654 62.9876 33.2279 64.4038H34.8307Z" fill="white"/>
<path d="M39.0753 63.5415H39.4959C39.9082 63.5415 40.2125 63.4728 40.4088 63.3353C40.6051 63.1979 40.7033 62.982 40.7033 62.6875C40.7033 62.3958 40.6023 62.1883 40.4004 62.0649C40.2013 61.9415 39.8914 61.8798 39.4707 61.8798H39.0753V63.5415ZM39.0753 64.6016V66.9615H37.7712V60.8113H39.5633C40.399 60.8113 41.0174 60.9641 41.4184 61.2698C41.8195 61.5727 42.02 62.0341 42.02 62.6538C42.02 63.0156 41.9204 63.3381 41.7213 63.6214C41.5222 63.9018 41.2403 64.122 40.8758 64.2819C41.8012 65.6645 42.4042 66.5577 42.6846 66.9615H41.2375L39.7694 64.6016H39.0753Z" fill="white"/>
<path d="M49.3271 65.2536C49.3271 65.8089 49.1266 66.2464 48.7255 66.5661C48.3273 66.8858 47.772 67.0457 47.0596 67.0457C46.4034 67.0457 45.8229 66.9223 45.3181 66.6755V65.4639C45.7331 65.649 46.0837 65.7794 46.3697 65.8552C46.6586 65.9309 46.9222 65.9688 47.1606 65.9688C47.4467 65.9688 47.6654 65.9141 47.8169 65.8047C47.9711 65.6953 48.0482 65.5327 48.0482 65.3167C48.0482 65.1961 48.0146 65.0895 47.9473 64.997C47.88 64.9016 47.7804 64.8105 47.6486 64.7236C47.5196 64.6366 47.2546 64.4978 46.8535 64.3071C46.4777 64.1304 46.1959 63.9607 46.008 63.7981C45.8201 63.6354 45.67 63.4461 45.5578 63.2302C45.4457 63.0142 45.3896 62.7618 45.3896 62.473C45.3896 61.9289 45.5733 61.5012 45.9407 61.1899C46.3108 60.8786 46.8213 60.723 47.4719 60.723C47.7916 60.723 48.0959 60.7608 48.3848 60.8365C48.6764 60.9123 48.9807 61.0188 49.2976 61.1563L48.877 62.1701C48.5488 62.0355 48.2768 61.9415 48.0608 61.8882C47.8477 61.8349 47.6374 61.8083 47.4298 61.8083C47.183 61.8083 46.9937 61.8658 46.8619 61.9808C46.7301 62.0958 46.6642 62.2458 46.6642 62.4309C46.6642 62.5459 46.6909 62.6468 46.7441 62.7338C46.7974 62.8179 46.8816 62.9006 46.9965 62.982C47.1143 63.0605 47.3906 63.2035 47.8253 63.4111C48.4002 63.6859 48.7942 63.9621 49.0074 64.2398C49.2205 64.5146 49.3271 64.8526 49.3271 65.2536Z" fill="white"/>
<path d="M52.3223 66.0234C52.5466 66.0234 52.8159 65.9744 53.13 65.8762V66.8311C52.8102 66.9742 52.4176 67.0457 51.9521 67.0457C51.4389 67.0457 51.0645 66.9167 50.8289 66.6587C50.5961 66.3978 50.4797 66.008 50.4797 65.4892V63.2218H49.8655V62.6791L50.5723 62.25L50.9425 61.2572H51.7628V62.2584H53.0795V63.2218H51.7628V65.4892C51.7628 65.6715 51.8133 65.8061 51.9142 65.893C52.018 65.98 52.154 66.0234 52.3223 66.0234Z" fill="white"/>
<path d="M57.0717 66.9615L56.8235 66.3221H56.7898C56.5739 66.5942 56.3509 66.7835 56.1209 66.89C55.8938 66.9938 55.5965 67.0457 55.2291 67.0457C54.7776 67.0457 54.4214 66.9167 54.1606 66.6587C53.9026 66.4006 53.7736 66.0333 53.7736 65.5565C53.7736 65.0573 53.9475 64.6899 54.2952 64.4543C54.6458 64.2159 55.173 64.0841 55.877 64.0589L56.6931 64.0337V63.8275C56.6931 63.3508 56.4491 63.1124 55.9611 63.1124C55.5853 63.1124 55.1436 63.226 54.636 63.4531L54.2111 62.5865C54.7524 62.3033 55.3525 62.1617 56.0116 62.1617C56.6426 62.1617 57.1264 62.2991 57.4629 62.5739C57.7994 62.8488 57.9677 63.2666 57.9677 63.8275V66.9615H57.0717ZM56.6931 64.7825L56.1967 64.7993C55.8237 64.8105 55.546 64.8778 55.3637 65.0012C55.1814 65.1246 55.0903 65.3125 55.0903 65.5649C55.0903 65.9267 55.2978 66.1076 55.7129 66.1076C56.0102 66.1076 56.2471 66.022 56.4238 65.851C56.6033 65.6799 56.6931 65.4527 56.6931 65.1695V64.7825Z" fill="white"/>
<path d="M61.9178 62.1701C62.0917 62.1701 62.2361 62.1827 62.3511 62.2079L62.2544 63.4111C62.1506 63.383 62.0244 63.369 61.8758 63.369C61.4663 63.369 61.1466 63.4742 60.9166 63.6845C60.6895 63.8948 60.5759 64.1893 60.5759 64.5679V66.9615H59.2928V62.2584H60.2646L60.4539 63.0493H60.517C60.6628 62.7857 60.8591 62.5739 61.1059 62.4141C61.3555 62.2514 61.6262 62.1701 61.9178 62.1701Z" fill="white"/>
<path d="M65.1864 66.0234C65.4108 66.0234 65.68 65.9744 65.9941 65.8762V66.8311C65.6744 66.9742 65.2818 67.0457 64.8163 67.0457C64.303 67.0457 63.9286 66.9167 63.6931 66.6587C63.4603 66.3978 63.3439 66.008 63.3439 65.4892V63.2218H62.7297V62.6791L63.4364 62.25L63.8066 61.2572H64.627V62.2584H65.9437V63.2218H64.627V65.4892C64.627 65.6715 64.6774 65.8061 64.7784 65.893C64.8822 65.98 65.0182 66.0234 65.1864 66.0234Z" fill="white"/>
<path d="M68.8968 63.0829C68.6248 63.0829 68.4116 63.1699 68.2574 63.3438C68.1031 63.5148 68.0148 63.7588 67.9923 64.0757H69.7928C69.7872 63.7588 69.7045 63.5148 69.5446 63.3438C69.3848 63.1699 69.1688 63.0829 68.8968 63.0829ZM69.0777 67.0457C68.3205 67.0457 67.7287 66.8367 67.3024 66.4189C66.8762 66.001 66.663 65.4093 66.663 64.6436C66.663 63.8556 66.8593 63.247 67.252 62.8179C67.6474 62.386 68.1929 62.1701 68.8884 62.1701C69.553 62.1701 70.0705 62.3594 70.4407 62.738C70.8108 63.1166 70.9959 63.6396 70.9959 64.3071V64.9297H67.9629C67.9769 65.2943 68.0849 65.5789 68.2868 65.7837C68.4887 65.9884 68.772 66.0907 69.1366 66.0907C69.4198 66.0907 69.6877 66.0613 69.9401 66.0024C70.1925 65.9435 70.4561 65.8496 70.7309 65.7206V66.7133C70.5066 66.8255 70.2668 66.9083 70.0116 66.9615C69.7564 67.0176 69.4451 67.0457 69.0777 67.0457Z" fill="white"/>
<path d="M76.3806 66.9615H75.0975V64.2145C75.0975 63.8752 75.0372 63.6214 74.9166 63.4531C74.796 63.2821 74.6039 63.1965 74.3403 63.1965C73.9813 63.1965 73.7219 63.3171 73.5621 63.5583C73.4022 63.7967 73.3223 64.1935 73.3223 64.7488V66.9615H72.0392V62.2584H73.0194L73.1919 62.86H73.2634C73.4064 62.6328 73.6027 62.4617 73.8523 62.3468C74.1047 62.229 74.3908 62.1701 74.7105 62.1701C75.2574 62.1701 75.6724 62.3187 75.9557 62.616C76.2389 62.9105 76.3806 63.3367 76.3806 63.8948V66.9615Z" fill="white"/>
<path d="M64.8079 162.346H28.4386C22.5248 162.346 17.731 157.552 17.731 151.638V20.4385C17.731 14.5246 22.5248 9.73077 28.4386 9.73077H79.6387C85.5525 9.73077 90.3463 14.5246 90.3463 20.4385V114.346M95.9864 147.944L87.8256 125.412C86.0148 120.414 88.1369 115.064 92.5615 113.458C96.986 111.852 102.041 114.605 103.852 119.611L114.799 149.845M114.815 149.837L106.589 127.108C104.975 122.643 106.867 117.858 110.825 116.424C114.782 114.99 119.297 117.448 120.919 121.922L131.366 150.763M133.103 155.605L125.368 134.253C123.754 129.787 125.647 125.002 129.604 123.569C133.562 122.135 138.077 124.593 139.699 129.066L148.491 153.336C150.096 157.768 151.407 162.308 152.407 166.904C152.71 168.297 152.948 169.69 153.153 171.099C154.275 178.564 158.257 204.308 160.756 211.207M71.4467 181.235L66.3749 167.224C62.3437 154.901 66.1701 149.157 73.0772 146.658L75.5926 145.749M71.455 181.235L77.5018 195.885C80.4761 203.087 85.8183 209.052 92.6517 212.788L104.917 219.499C108.408 221.408 111.087 224.538 112.447 228.282L113.731 231.577M96.8303 150.255L76.4612 94.0145C74.7651 89.336 69.595 86.9107 64.9165 88.6067C60.238 90.3028 57.8127 95.4729 59.5088 100.151L83.4994 166.404" stroke="white" stroke-width="2" stroke-linecap="round" stroke-linejoin="round"/>
</svg>
