<svg width="173" height="194" viewBox="0 0 173 194" fill="none" xmlns="http://www.w3.org/2000/svg">
<path d="M142.135 34.9811C142.721 34.3955 142.722 33.4458 142.136 32.8598C141.55 32.2737 140.601 32.2734 140.015 32.8589L142.135 34.9811ZM127.084 45.7789C126.498 46.3644 126.498 47.3142 127.083 47.9002C127.669 48.4863 128.618 48.4866 129.205 47.9011L127.084 45.7789ZM129.205 146.099C128.618 145.513 127.669 145.514 127.083 146.1C126.498 146.686 126.498 147.636 127.084 148.221L129.205 146.099ZM140.015 161.141C140.601 161.727 141.55 161.726 142.136 161.14C142.722 160.554 142.721 159.604 142.135 159.019L140.015 161.141ZM156.287 95.5C155.459 95.5 154.787 96.1716 154.787 97C154.787 97.8284 155.459 98.5 156.287 98.5V95.5ZM171.5 98.5C172.328 98.5 173 97.8284 173 97C173 96.1716 172.328 95.5 171.5 95.5V98.5ZM101.142 48.8802C100.429 48.4599 99.5091 48.6979 99.0888 49.4118C98.6685 50.1256 98.9065 51.0451 99.6204 51.4654L101.142 48.8802ZM135.375 70.7754L136.136 72.0679C136.594 71.7983 136.875 71.3067 136.875 70.7753C136.875 70.244 136.594 69.7523 136.136 69.4828L135.375 70.7754ZM99.6203 90.0886C98.9065 90.5089 98.6685 91.4284 99.0889 92.1422C99.5092 92.8561 100.429 93.094 101.143 92.6737L99.6203 90.0886ZM135.375 70.78H136.875C136.875 70.2418 136.586 69.7449 136.119 69.4778C135.652 69.2107 135.077 69.2144 134.614 69.4874L135.375 70.78ZM135.375 122.075L136.136 123.368C136.594 123.098 136.875 122.607 136.875 122.075H135.375ZM99.6203 90.0931C98.9065 90.5134 98.6685 91.4329 99.0889 92.1467C99.5092 92.8606 100.429 93.0985 101.143 92.6782L99.6203 90.0931ZM99.6203 141.388C98.9065 141.809 98.6685 142.728 99.0889 143.442C99.5092 144.156 100.429 144.394 101.143 143.974L99.6203 141.388ZM85.927 51.4654C86.6409 51.0451 86.8788 50.1256 86.4585 49.4118C86.0382 48.6979 85.1188 48.4599 84.4049 48.8802L85.927 51.4654ZM50.1725 70.7754L49.4114 69.4828C48.9536 69.7523 48.6725 70.244 48.6725 70.7753C48.6725 71.3067 48.9535 71.7983 49.4114 72.0679L50.1725 70.7754ZM84.4048 92.6737C85.1187 93.094 86.0381 92.8561 86.4585 92.1422C86.8788 91.4284 86.6409 90.5089 85.927 90.0886L84.4048 92.6737ZM50.1725 70.78L50.9336 69.4874C50.4698 69.2144 49.8953 69.2107 49.4281 69.4778C48.9608 69.7449 48.6725 70.2418 48.6725 70.78H50.1725ZM50.1725 122.075H48.6725C48.6725 122.607 48.9535 123.098 49.4114 123.368L50.1725 122.075ZM84.4046 92.6782C85.1185 93.0985 86.038 92.8606 86.4583 92.1467C86.8787 91.4329 86.6407 90.5134 85.9269 90.0931L84.4046 92.6782ZM84.4046 143.974C85.1185 144.394 86.038 144.156 86.4583 143.442C86.8787 142.728 86.6407 141.809 85.9269 141.388L84.4046 143.974ZM20.5157 2V0.5C19.6872 0.5 19.0157 1.17157 19.0157 2L20.5157 2ZM74.5201 2H76.0201C76.0201 1.17157 75.3486 0.5 74.5201 0.5V2ZM140.015 32.8589L127.084 45.7789L129.205 47.9011L142.135 34.9811L140.015 32.8589ZM127.084 148.221L140.015 161.141L142.135 159.019L129.205 146.099L127.084 148.221ZM156.287 98.5H171.5V95.5H156.287V98.5ZM15.1913 3.5H79.0839V0.5H15.1913V3.5ZM91.2752 15.68V178.32H94.2752V15.68H91.2752ZM79.0839 190.5H15.1913V193.5H79.0839V190.5ZM3 178.32V15.68H0V178.32H3ZM15.1913 190.5C8.45705 190.5 3 185.046 3 178.32H0C0 186.705 6.80253 193.5 15.1913 193.5V190.5ZM91.2752 178.32C91.2752 185.046 85.8181 190.5 79.0839 190.5V193.5C87.4726 193.5 94.2752 186.705 94.2752 178.32H91.2752ZM79.0839 3.5C85.8181 3.5 91.2752 8.95434 91.2752 15.68H94.2752C94.2752 7.29515 87.4726 0.5 79.0839 0.5V3.5ZM15.1913 0.5C6.80253 0.5 0 7.29516 0 15.68H3C3 8.95434 8.45706 3.5 15.1913 3.5V0.5ZM99.6204 51.4654L134.614 72.068L136.136 69.4828L101.142 48.8802L99.6204 51.4654ZM134.614 69.4828L99.6203 90.0886L101.143 92.6737L136.136 72.0679L134.614 69.4828ZM133.875 70.78L133.875 122.075H136.875L136.875 70.78H133.875ZM101.143 92.6782L136.136 72.0726L134.614 69.4874L99.6203 90.0931L101.143 92.6782ZM134.614 120.783L99.6203 141.388L101.143 143.974L136.136 123.368L134.614 120.783ZM84.4049 48.8802L49.4114 69.4828L50.9335 72.068L85.927 51.4654L84.4049 48.8802ZM49.4114 72.0679L84.4048 92.6737L85.927 90.0886L50.9336 69.4828L49.4114 72.0679ZM48.6725 70.78L48.6725 122.075H51.6725L51.6725 70.78H48.6725ZM85.9269 90.0931L50.9336 69.4874L49.4114 72.0726L84.4046 92.6782L85.9269 90.0931ZM49.4114 123.368L84.4046 143.974L85.9269 141.388L50.9336 120.783L49.4114 123.368ZM20.5157 3.5H74.5201V0.5H20.5157V3.5ZM73.0201 2V5.04H76.0201V2H73.0201ZM69.9564 8.1H25.0794V11.1H69.9564V8.1ZM22.0157 5.04V2H19.0157V5.04H22.0157ZM25.0794 8.1C23.3862 8.1 22.0157 6.72883 22.0157 5.04H19.0157C19.0157 8.38801 21.7317 11.1 25.0794 11.1V8.1ZM73.0201 5.04C73.0201 6.72883 71.6496 8.1 69.9564 8.1V11.1C73.3041 11.1 76.0201 8.38801 76.0201 5.04H73.0201Z" fill="#222225"/>
</svg>
