<svg width="227" height="226" viewBox="0 0 227 226" fill="none" xmlns="http://www.w3.org/2000/svg">
<path d="M189.135 50.9811C189.721 50.3955 189.722 49.4458 189.136 48.8598C188.55 48.2737 187.601 48.2734 187.015 48.8589L189.135 50.9811ZM174.084 61.7789C173.498 62.3644 173.498 63.3142 174.083 63.9002C174.669 64.4863 175.618 64.4866 176.205 63.9011L174.084 61.7789ZM176.205 162.099C175.618 161.513 174.669 161.514 174.083 162.1C173.498 162.686 173.498 163.636 174.084 164.221L176.205 162.099ZM187.015 177.141C187.601 177.727 188.55 177.726 189.136 177.14C189.722 176.554 189.721 175.604 189.135 175.019L187.015 177.141ZM203.287 111.5C202.459 111.5 201.787 112.172 201.787 113C201.787 113.828 202.459 114.5 203.287 114.5V111.5ZM218.5 114.5C219.328 114.5 220 113.828 220 113C220 112.172 219.328 111.5 218.5 111.5V114.5ZM148.142 64.8802C147.429 64.4599 146.509 64.6979 146.089 65.4118C145.669 66.1256 145.907 67.0451 146.62 67.4654L148.142 64.8802ZM182.375 86.7754L183.136 88.0679C183.594 87.7983 183.875 87.3067 183.875 86.7753C183.875 86.244 183.594 85.7523 183.136 85.4828L182.375 86.7754ZM146.62 106.089C145.906 106.509 145.669 107.428 146.089 108.142C146.509 108.856 147.429 109.094 148.143 108.674L146.62 106.089ZM182.375 86.78H183.875C183.875 86.2418 183.586 85.7449 183.119 85.4778C182.652 85.2107 182.077 85.2144 181.614 85.4874L182.375 86.78ZM182.375 138.075L183.136 139.368C183.594 139.098 183.875 138.607 183.875 138.075H182.375ZM146.62 106.093C145.906 106.513 145.669 107.433 146.089 108.147C146.509 108.861 147.429 109.099 148.143 108.678L146.62 106.093ZM146.62 157.388C145.906 157.809 145.669 158.728 146.089 159.442C146.509 160.156 147.429 160.394 148.143 159.974L146.62 157.388ZM132.927 67.4654C133.641 67.0451 133.879 66.1256 133.459 65.4118C133.038 64.6979 132.119 64.4599 131.405 64.8802L132.927 67.4654ZM97.1725 86.7754L96.4114 85.4828C95.9536 85.7523 95.6725 86.244 95.6725 86.7753C95.6725 87.3067 95.9535 87.7983 96.4114 88.0679L97.1725 86.7754ZM131.405 108.674C132.119 109.094 133.038 108.856 133.458 108.142C133.879 107.428 133.641 106.509 132.927 106.089L131.405 108.674ZM97.1725 86.78L97.9336 85.4874C97.4698 85.2144 96.8953 85.2107 96.4281 85.4778C95.9608 85.7449 95.6725 86.2418 95.6725 86.78H97.1725ZM97.1725 138.075H95.6725C95.6725 138.607 95.9535 139.098 96.4114 139.368L97.1725 138.075ZM131.405 108.678C132.118 109.099 133.038 108.861 133.458 108.147C133.879 107.433 133.641 106.513 132.927 106.093L131.405 108.678ZM131.405 159.974C132.118 160.394 133.038 160.156 133.458 159.442C133.879 158.728 133.641 157.809 132.927 157.388L131.405 159.974ZM67.5157 18V16.5C66.6872 16.5 66.0157 17.1716 66.0157 18H67.5157ZM121.52 18H123.02C123.02 17.1716 122.349 16.5 121.52 16.5V18ZM187.015 48.8589L174.084 61.7789L176.205 63.9011L189.135 50.9811L187.015 48.8589ZM174.084 164.221L187.015 177.141L189.135 175.019L176.205 162.099L174.084 164.221ZM203.287 114.5H218.5V111.5H203.287V114.5ZM62.1913 19.5H126.084V16.5H62.1913V19.5ZM138.275 31.68V194.32H141.275V31.68H138.275ZM126.084 206.5H62.1913V209.5H126.084V206.5ZM50 194.32V31.68H47V194.32H50ZM62.1913 206.5C55.4571 206.5 50 201.046 50 194.32H47C47 202.705 53.8025 209.5 62.1913 209.5V206.5ZM138.275 194.32C138.275 201.046 132.818 206.5 126.084 206.5V209.5C134.473 209.5 141.275 202.705 141.275 194.32H138.275ZM126.084 19.5C132.818 19.5 138.275 24.9543 138.275 31.68H141.275C141.275 23.2952 134.473 16.5 126.084 16.5V19.5ZM62.1913 16.5C53.8025 16.5 47 23.2952 47 31.68H50C50 24.9543 55.4571 19.5 62.1913 19.5V16.5ZM146.62 67.4654L181.614 88.068L183.136 85.4828L148.142 64.8802L146.62 67.4654ZM181.614 85.4828L146.62 106.089L148.143 108.674L183.136 88.0679L181.614 85.4828ZM180.875 86.78L180.875 138.075H183.875L183.875 86.78H180.875ZM148.143 108.678L183.136 88.0726L181.614 85.4874L146.62 106.093L148.143 108.678ZM181.614 136.783L146.62 157.388L148.143 159.974L183.136 139.368L181.614 136.783ZM131.405 64.8802L96.4114 85.4828L97.9335 88.068L132.927 67.4654L131.405 64.8802ZM96.4114 88.0679L131.405 108.674L132.927 106.089L97.9336 85.4828L96.4114 88.0679ZM95.6725 86.78L95.6725 138.075H98.6725L98.6725 86.78H95.6725ZM132.927 106.093L97.9336 85.4874L96.4114 88.0726L131.405 108.678L132.927 106.093ZM96.4114 139.368L131.405 159.974L132.927 157.388L97.9336 136.783L96.4114 139.368ZM67.5157 19.5H121.52V16.5H67.5157V19.5ZM120.02 18V21.04H123.02V18H120.02ZM116.956 24.1H72.0794V27.1H116.956V24.1ZM69.0157 21.04V18H66.0157V21.04H69.0157ZM72.0794 24.1C70.3862 24.1 69.0157 22.7288 69.0157 21.04H66.0157C66.0157 24.388 68.7317 27.1 72.0794 27.1V24.1ZM120.02 21.04C120.02 22.7288 118.65 24.1 116.956 24.1V27.1C120.304 27.1 123.02 24.388 123.02 21.04H120.02Z" fill="white"/>
</svg>
