<svg width="26" height="25" viewBox="0 0 26 25" fill="none" xmlns="http://www.w3.org/2000/svg">
<path d="M14.4116 1.74984C14.8257 1.38443 14.8652 0.752502 14.4998 0.338378C14.1344 -0.0757456 13.5025 -0.115241 13.0884 0.250162L14.4116 1.74984ZM1 12.25L0.338378 11.5002C0.123239 11.69 0 11.9631 0 12.25C0 12.5369 0.123239 12.81 0.338378 12.9998L1 12.25ZM13.0884 24.2498C13.5025 24.6152 14.1344 24.5757 14.4998 24.1616C14.8652 23.7475 14.8257 23.1156 14.4116 22.7502L13.0884 24.2498ZM24.25 13.25C24.8023 13.25 25.25 12.8023 25.25 12.25C25.25 11.6977 24.8023 11.25 24.25 11.25V13.25ZM13.0884 0.250162L0.338378 11.5002L1.66162 12.9998L14.4116 1.74984L13.0884 0.250162ZM0.338378 12.9998L13.0884 24.2498L14.4116 22.7502L1.66162 11.5002L0.338378 12.9998ZM1 13.25H24.25V11.25H1V13.25Z" fill="white"/>
</svg>
