<svg width="40" height="40" viewBox="0 0 40 40" fill="none" xmlns="http://www.w3.org/2000/svg">
<path d="M17.5076 33.8752C16.8864 34.4233 16.8271 35.3712 17.3752 35.9924C17.9233 36.6136 18.8712 36.6729 19.4924 36.1248L17.5076 33.8752ZM35.5 20L36.4924 21.1248C36.8151 20.84 37 20.4304 37 20C37 19.5696 36.8151 19.16 36.4924 18.8752L35.5 20ZM19.4924 3.87524C18.8712 3.32714 17.9233 3.38638 17.3752 4.00757C16.8271 4.62875 16.8864 5.57665 17.5076 6.12476L19.4924 3.87524ZM4.5 18.5C3.67157 18.5 3 19.1716 3 20C3 20.8284 3.67157 21.5 4.5 21.5L4.5 18.5ZM19.4924 36.1248L36.4924 21.1248L34.5076 18.8752L17.5076 33.8752L19.4924 36.1248ZM36.4924 18.8752L19.4924 3.87524L17.5076 6.12476L34.5076 21.1248L36.4924 18.8752ZM35.5 18.5L4.5 18.5L4.5 21.5L35.5 21.5V18.5Z" fill="#222225"/>
</svg>
