<svg width="24" height="24" viewBox="0 0 24 24" fill="none" xmlns="http://www.w3.org/2000/svg">
<path fill-rule="evenodd" clip-rule="evenodd" d="M11.8196 14.6905C11.9283 14.6845 12.0355 14.6814 12.1415 14.6784C12.374 14.6716 12.6004 14.6651 12.8231 14.629C14.0226 14.4358 14.9193 13.0051 14.7184 11.6279C14.5273 10.3167 13.6829 9.43101 12.5281 9.33831C12.3683 9.3254 12.2081 9.32902 12.0472 9.33265C11.9715 9.33436 11.8957 9.33608 11.8196 9.33608V14.6905ZM10 16.9879V7.01518C10.0158 7.01375 10.0314 7.01198 10.0467 7.01023C10.0793 7.00651 10.111 7.0029 10.1427 7.0029C10.4079 7.0029 10.6732 7.00217 10.9385 7.00145C11.5451 6.99979 12.1518 6.99814 12.7581 7.00513C14.9281 7.02859 16.7662 8.97421 16.9778 11.4604C17.199 14.0561 15.7491 16.3513 13.5335 16.8919C13.2298 16.9667 12.9114 16.9879 12.5989 16.9935C12.0198 17.0022 11.4401 17.0003 10.8607 16.9984H10.8606H10.8605H10.8604C10.6166 16.9976 10.3728 16.9969 10.1291 16.9969C10.1014 16.9969 10.0733 16.9944 10.038 16.9912L10 16.9879ZM7.01848 13.5862V10.0324C6.53047 10.8648 6.05317 11.6778 5.5748 12.4928L5.57427 12.4937L5.5701 12.5008L5.56993 12.501L4.93294 13.5862H7.01848ZM9 16.9904H7.03361V15.6774H6.83707L6.17045 15.6777C5.39234 15.678 4.61389 15.6784 3.83605 15.6741C3.71181 15.673 3.64358 15.7165 3.57943 15.8315C3.38493 16.1832 3.1833 16.5293 2.97454 16.8699C2.93788 16.9313 2.8554 16.9938 2.7943 16.9938C2.0886 17.0008 1.38291 17.0002 0.677706 16.9997H0.67755H0.67744H0.67733H0.67722C0.485045 16.9995 0.292906 16.9994 0.100815 16.9994C0.0847631 16.9994 0.0690587 16.9967 0.0494462 16.9934L0.0494248 16.9934C0.035448 16.991 0.0194861 16.9883 0 16.986C0.0149333 16.961 0.0281984 16.9378 0.0406732 16.916C0.0605242 16.8814 0.0783739 16.8502 0.0977597 16.8207L1.67976 14.4031L1.68064 14.4018L1.68185 14.3999C3.26302 11.9838 4.84418 9.56766 6.42363 7.14963C6.49389 7.04245 6.56517 6.9989 6.68737 7.00002C7.24018 7.00436 7.79238 7.00398 8.34492 7.00359L8.81874 7.00337H9V16.9904ZM21.2913 7.00067C21.1968 7.00103 21.1 7.0014 21 7.0014C22.2693 8.40815 22.9747 10.0255 23.0588 11.9205C23.1407 13.8156 22.5715 15.49 21.4288 16.9965C21.5268 16.9965 21.6216 16.996 21.7142 16.9956H21.7143H21.7143C21.9473 16.9945 22.166 16.9934 22.3853 16.9998C22.5013 17.0032 22.5662 16.9595 22.6289 16.8598C23.7876 15.0555 24.2228 13.0764 23.8929 10.926C23.6748 9.50353 23.1152 8.23342 22.2427 7.12012C22.2012 7.0686 22.1331 7.00812 22.0767 7.007C21.821 6.99867 21.5659 6.99963 21.2913 7.00067ZM17.4303 16.9976C18.5695 15.4863 19.1429 13.8114 19.0575 11.9158C18.9731 10.0225 18.2727 8.40139 17 7.00099C17.0947 7.00099 17.1872 7.00073 17.2778 7.00048C17.565 6.99968 17.8343 6.99893 18.1029 7.00659C18.1531 7.00771 18.2097 7.07829 18.2492 7.12759C19.1952 8.34313 19.7685 9.72896 19.9436 11.2896C20.1679 13.3151 19.7216 15.1692 18.6314 16.8564C18.5642 16.9617 18.4905 17.0032 18.3699 16.9998C18.1594 16.9943 17.9489 16.9954 17.7261 16.9966C17.6301 16.9971 17.5318 16.9976 17.4303 16.9976ZM19.3151 7.00109C19.2135 7.00167 19.1088 7.00227 19 7.00227C20.2718 8.40664 20.9763 10.026 21.0615 11.9164C21.1455 13.8136 20.574 15.4946 19.4289 16.9964C19.5278 16.9964 19.6232 16.9958 19.7162 16.9952C19.9403 16.9939 20.1499 16.9926 20.3591 16.9997C20.4878 17.0042 20.5623 16.9572 20.6336 16.8474C21.7767 15.0735 22.2087 13.1237 21.9065 11.0071C21.7 9.56351 21.1392 8.27449 20.2611 7.14226C20.2143 7.08067 20.1345 7.01123 20.0675 7.00787C19.8243 6.99816 19.5801 6.99956 19.3151 7.00109Z" fill="#222225"/>
</svg>
