<svg width="40" height="40" viewBox="0 0 40 40" fill="none" xmlns="http://www.w3.org/2000/svg">
<path d="M37.1211 11.9965C37.6715 11.3774 37.6157 10.4293 36.9965 9.87889C36.3774 9.32851 35.4293 9.38428 34.8789 10.0035L37.1211 11.9965ZM20 29L18.8789 29.9965C19.1635 30.3168 19.5715 30.5 20 30.5C20.4285 30.5 20.8365 30.3168 21.1211 29.9965L20 29ZM5.12111 10.0035C4.57074 9.38428 3.62263 9.32851 3.00345 9.87889C2.38428 10.4293 2.32851 11.3774 2.87889 11.9965L5.12111 10.0035ZM34.8789 10.0035L18.8789 28.0035L21.1211 29.9965L37.1211 11.9965L34.8789 10.0035ZM2.87889 11.9965L18.8789 29.9965L21.1211 28.0035L5.12111 10.0035L2.87889 11.9965Z" fill="#222225"/>
</svg>
