<svg width="28" height="29" viewBox="0 0 28 29" fill="none" xmlns="http://www.w3.org/2000/svg">
<path d="M26.3212 9.1965C26.8715 8.57732 26.8158 7.62921 26.1966 7.07884C25.5774 6.52846 24.6293 6.58423 24.0789 7.20341L26.3212 9.1965ZM14 20.8L12.8789 21.7965C13.1636 22.1167 13.5716 22.3 14 22.3C14.4285 22.3 14.8365 22.1167 15.1212 21.7965L14 20.8ZM3.92116 7.20341C3.37079 6.58423 2.42268 6.52846 1.8035 7.07884C1.18433 7.62921 1.12856 8.57732 1.67893 9.1965L3.92116 7.20341ZM24.0789 7.20341L12.8789 19.8034L15.1212 21.7965L26.3212 9.1965L24.0789 7.20341ZM1.67893 9.1965L12.8789 21.7965L15.1212 19.8034L3.92116 7.20341L1.67893 9.1965Z" fill="#222225"/>
</svg>
