<svg width="12" height="17" viewBox="0 0 12 17" fill="none" xmlns="http://www.w3.org/2000/svg">
<path d="M9.21959 16.6343C9.73559 17.093 10.5257 17.0465 10.9843 16.5305C11.443 16.0145 11.3965 15.2244 10.8805 14.7658L9.21959 16.6343ZM1.95004 8.50006L1.11958 7.5658C0.852722 7.80301 0.700043 8.14301 0.700043 8.50006C0.700043 8.85711 0.852722 9.19711 1.11958 9.43431L1.95004 8.50006ZM10.8805 2.23432C11.3965 1.77568 11.443 0.985581 10.9843 0.469611C10.5257 -0.0463721 9.73559 -0.092847 9.21959 0.365801L10.8805 2.23432ZM10.8805 14.7658L2.78049 7.5658L1.11958 9.43431L9.21959 16.6343L10.8805 14.7658ZM9.21959 0.365801L1.11958 7.5658L2.78049 9.43431L10.8805 2.23432L9.21959 0.365801Z" fill="black"/>
</svg>
