<svg width="18" height="19" viewBox="0 0 18 19" fill="none" xmlns="http://www.w3.org/2000/svg">
<path d="M12.2196 17.6342C12.7356 18.0929 13.5257 18.0464 13.9843 17.5304C14.443 17.0144 14.3965 16.2243 13.8805 15.7657L12.2196 17.6342ZM4.95005 9.49995L4.11959 8.56569C3.85273 8.8029 3.70005 9.1429 3.70005 9.49995C3.70005 9.857 3.85273 10.197 4.11959 10.4342L4.95005 9.49995ZM13.8805 3.23421C14.3965 2.77557 14.443 1.98547 13.9843 1.4695C13.5257 0.953517 12.7356 0.907042 12.2196 1.36569L13.8805 3.23421ZM13.8805 15.7657L5.7805 8.56569L4.11959 10.4342L12.2196 17.6342L13.8805 15.7657ZM12.2196 1.36569L4.11959 8.56569L5.7805 10.4342L13.8805 3.23421L12.2196 1.36569Z" fill="white"/>
</svg>
