<svg width="34" height="34" viewBox="0 0 34 34" fill="none" xmlns="http://www.w3.org/2000/svg">
<path d="M8.71056 6.58937C8.12478 6.00358 7.17503 6.00358 6.58924 6.58937C6.00346 7.17515 6.00346 8.1249 6.58924 8.71069L8.71056 6.58937ZM25.2892 27.4107C25.875 27.9965 26.8248 27.9965 27.4106 27.4107C27.9963 26.8249 27.9963 25.8751 27.4106 25.2894L25.2892 27.4107ZM6.58924 25.2894C6.00346 25.8751 6.00346 26.8249 6.58924 27.4107C7.17503 27.9965 8.12478 27.9965 8.71056 27.4107L6.58924 25.2894ZM27.4106 8.71068C27.9963 8.1249 27.9963 7.17515 27.4106 6.58936C26.8248 6.00358 25.875 6.00358 25.2892 6.58936L27.4106 8.71068ZM6.58924 8.71069L25.2892 27.4107L27.4106 25.2894L8.71056 6.58937L6.58924 8.71069ZM8.71056 27.4107L27.4106 8.71068L25.2892 6.58936L6.58924 25.2894L8.71056 27.4107Z" fill="white"/>
</svg>
