<svg width="34" height="34" viewBox="0 0 34 34" fill="none" xmlns="http://www.w3.org/2000/svg">
<rect width="34" height="34" fill="white"/>
<path d="M8.71056 6.58924C8.12478 6.00346 7.17503 6.00346 6.58924 6.58924C6.00346 7.17503 6.00346 8.12478 6.58924 8.71056L8.71056 6.58924ZM25.2892 27.4106C25.875 27.9963 26.8248 27.9963 27.4106 27.4106C27.9963 26.8248 27.9963 25.875 27.4106 25.2892L25.2892 27.4106ZM6.58924 25.2892C6.00346 25.875 6.00346 26.8248 6.58924 27.4106C7.17503 27.9963 8.12478 27.9963 8.71056 27.4106L6.58924 25.2892ZM27.4106 8.71056C27.9963 8.12478 27.9963 7.17503 27.4106 6.58924C26.8248 6.00346 25.875 6.00346 25.2892 6.58924L27.4106 8.71056ZM6.58924 8.71056L25.2892 27.4106L27.4106 25.2892L8.71056 6.58924L6.58924 8.71056ZM8.71056 27.4106L27.4106 8.71056L25.2892 6.58924L6.58924 25.2892L8.71056 27.4106Z" fill="#222225"/>
</svg>
