<svg width="56" height="56" viewBox="0 0 56 56" fill="none" xmlns="http://www.w3.org/2000/svg">
<path d="M0 28C0 12.536 12.536 0 28 0V0C43.464 0 56 12.536 56 28V28C56 43.464 43.464 56 28 56V56C12.536 56 0 43.464 0 28V28Z" fill="#222225"/>
<path d="M21.9106 19.7893C21.3248 19.2035 20.3751 19.2035 19.7893 19.7893C19.2035 20.3751 19.2035 21.3248 19.7893 21.9106L21.9106 19.7893ZM34.0893 36.2106C34.6751 36.7964 35.6248 36.7964 36.2106 36.2106C36.7964 35.6248 36.7964 34.6751 36.2106 34.0893L34.0893 36.2106ZM19.7893 34.0893C19.2035 34.6751 19.2035 35.6248 19.7893 36.2106C20.3751 36.7964 21.3248 36.7964 21.9106 36.2106L19.7893 34.0893ZM36.2106 21.9106C36.7964 21.3248 36.7964 20.3751 36.2106 19.7893C35.6248 19.2035 34.6751 19.2035 34.0893 19.7893L36.2106 21.9106ZM19.7893 21.9106L34.0893 36.2106L36.2106 34.0893L21.9106 19.7893L19.7893 21.9106ZM21.9106 36.2106L36.2106 21.9106L34.0893 19.7893L19.7893 34.0893L21.9106 36.2106Z" fill="white"/>
</svg>
