<svg width="20" height="20" viewBox="0 0 20 20" fill="none" xmlns="http://www.w3.org/2000/svg">
<path d="M4.06066 1.93934C3.47487 1.35355 2.52513 1.35355 1.93934 1.93934C1.35355 2.52513 1.35355 3.47487 1.93934 4.06066L4.06066 1.93934ZM15.9393 18.0607C16.5251 18.6464 17.4749 18.6464 18.0607 18.0607C18.6464 17.4749 18.6464 16.5251 18.0607 15.9393L15.9393 18.0607ZM1.93934 15.9393C1.35355 16.5251 1.35355 17.4749 1.93934 18.0607C2.52513 18.6464 3.47487 18.6464 4.06066 18.0607L1.93934 15.9393ZM18.0607 4.06066C18.6464 3.47487 18.6464 2.52513 18.0607 1.93934C17.4749 1.35355 16.5251 1.35355 15.9393 1.93934L18.0607 4.06066ZM1.93934 4.06066L15.9393 18.0607L18.0607 15.9393L4.06066 1.93934L1.93934 4.06066ZM4.06066 18.0607L18.0607 4.06066L15.9393 1.93934L1.93934 15.9393L4.06066 18.0607Z" fill="#222225"/>
</svg>
