<svg width="24" height="24" viewBox="0 0 24 24" fill="none" xmlns="http://www.w3.org/2000/svg">
<path fill-rule="evenodd" clip-rule="evenodd" d="M16.9498 8.17631L19.0097 13.4084H14.8899L16.9498 8.17631ZM16.9498 4.80005C16.5817 4.80005 16.2515 5.02769 16.1138 5.3751L11.1643 17.9458C10.9798 18.4147 11.2048 18.9468 11.6655 19.1342C11.7753 19.179 11.8887 19.2001 11.9994 19.2001C12.3567 19.2001 12.695 18.9825 12.8363 18.625L14.17 15.2369H19.7296L21.0633 18.625C21.2487 19.0931 21.7715 19.3198 22.2341 19.1342C22.6948 18.9468 22.9198 18.4147 22.7353 17.9458L17.7858 5.3751C17.6481 5.02769 17.3179 4.80005 16.9498 4.80005ZM5.70033 11.7942L6.79588 14.5367H4.60386L5.70033 11.7942ZM4.84718 8.97816L1.26575 17.9391C1.0775 18.4106 1.30616 18.9446 1.77725 19.1339C1.88929 19.178 2.005 19.2001 2.11795 19.2001C2.48252 19.2001 2.82781 18.9804 2.97106 18.622L3.86918 16.3749H7.5305L8.42861 18.622C8.61687 19.0926 9.15133 19.3205 9.62243 19.1339C10.0935 18.9446 10.3222 18.4106 10.1339 17.9391L6.5525 8.97816C6.41291 8.62891 6.07497 8.40007 5.7003 8.40007C5.32471 8.40007 4.98677 8.62891 4.84718 8.97816Z" fill="#222225"/>
</svg>
