<svg width="56" height="56" viewBox="0 0 56 56" fill="none" xmlns="http://www.w3.org/2000/svg">
<path d="M0 28C0 12.536 12.536 0 28 0V0C43.464 0 56 12.536 56 28V28C56 43.464 43.464 56 28 56V56C12.536 56 0 43.464 0 28V28Z" fill="white"/>
<path fill-rule="evenodd" clip-rule="evenodd" d="M16.6972 16.4536C16.9455 16.2863 17.2607 16.2534 17.5382 16.3659L24.4 19.1478L31.2619 16.3659C31.4788 16.278 31.7213 16.278 31.9382 16.3659L39.1382 19.2848C39.4778 19.4225 39.7 19.7524 39.7 20.1189V38.8C39.7 39.0994 39.5512 39.3792 39.3029 39.5464C39.0546 39.7137 38.7394 39.7465 38.4619 39.6341L31.6 36.8522L24.7382 39.6341C24.5213 39.722 24.2788 39.722 24.0619 39.6341L16.8619 36.7151C16.5223 36.5774 16.3 36.2476 16.3 35.8811V17.2C16.3 16.9006 16.4489 16.6208 16.6972 16.4536ZM32.5 35.2748L37.9 37.464V20.7252L32.5 18.536V35.2748ZM30.7 18.536V35.2748L25.3 37.464V20.7252L30.7 18.536ZM23.5 20.7252L18.1 18.536V35.2748L23.5 37.464V20.7252Z" fill="#222225"/>
</svg>
