<svg width="40" height="40" viewBox="0 0 40 40" fill="none" xmlns="http://www.w3.org/2000/svg">
<path d="M0 20C0 8.95431 8.95431 0 20 0V0C31.0457 0 40 8.95431 40 20V20C40 31.0457 31.0457 40 20 40V40C8.95431 40 0 31.0457 0 20V20Z" fill="white"/>
<path fill-rule="evenodd" clip-rule="evenodd" d="M13.75 12C13.75 11.5858 14.0858 11.25 14.5 11.25H18C18.4142 11.25 18.75 11.5858 18.75 12V28C18.75 28.4142 18.4142 28.75 18 28.75H14.5C14.0858 28.75 13.75 28.4142 13.75 28V12Z" fill="#222225"/>
<path d="M21.25 12C21.25 11.5858 21.5858 11.25 22 11.25H25.5C25.9142 11.25 26.25 11.5858 26.25 12V28C26.25 28.4142 25.9142 28.75 25.5 28.75H22C21.5858 28.75 21.25 28.4142 21.25 28V12Z" fill="#222225"/>
</svg>
