<svg width="31" height="31" viewBox="0 0 31 31" fill="none" xmlns="http://www.w3.org/2000/svg">
<path d="M9.05779 0.399614C8.38695 0.577554 7.79144 1.08409 7.51058 1.71401C7.40115 1.94682 7.38038 2.28907 7.3531 4.65096L7.319 7.32099L4.64897 7.35509C2.10914 7.38919 1.9653 7.39632 1.67111 7.53303C1.17821 7.76584 0.808381 8.13536 0.561931 8.6419L0.335941 9.1007L0.315481 18.8561C0.301841 28.5978 0.301841 28.6115 0.445681 29.0839C0.568751 29.4947 0.651211 29.6177 1.01391 29.9876C1.38343 30.3506 1.50681 30.4324 1.91756 30.5558C2.39 30.6996 2.40364 30.6996 12.1454 30.6857L21.9008 30.6652L22.3596 30.4392C22.8661 30.1928 23.236 29.823 23.4688 29.3301C23.6058 29.0356 23.6126 28.892 23.6467 26.3522L23.6808 23.6822L26.3508 23.6481C28.8907 23.614 29.0345 23.6068 29.3287 23.4701C29.8216 23.2373 30.1914 22.8678 30.4379 22.3613L30.6639 21.9025L30.6843 12.1471C30.698 2.40532 30.698 2.39168 30.5544 1.91924C30.4311 1.50849 30.3489 1.3851 29.9862 1.01558C29.6235 0.659705 29.4865 0.570735 29.0962 0.447355C28.6306 0.303515 28.5965 0.303515 18.9986 0.310335C11.5976 0.310645 9.29742 0.331104 9.05779 0.399614ZM28.3702 11.9759V21.3206H19.0255H9.68089V11.9759V2.63131H19.0255H28.3702V11.9759ZM7.3531 15.7893V21.9028L7.5515 22.3135C7.78431 22.7996 8.14701 23.1831 8.61945 23.4295L8.96169 23.6143L15.1369 23.6347L21.3189 23.6484V26.0103V28.3722H11.9743H2.62963V19.0275V9.68288H4.99152H7.3531V15.7893Z" fill="white"/>
<path d="M17.4511 5.06169C16.5201 5.39711 16.4172 6.6706 17.2799 7.17714C17.5059 7.31416 17.6426 7.32098 19.7376 7.34144L21.9557 7.3619L18.2521 11.0723C15.6983 13.6329 14.5141 14.8651 14.4388 15.0363C14.295 15.3921 14.3086 15.7071 14.4937 16.0493C14.7742 16.5763 15.3973 16.7955 15.9655 16.5627C16.1367 16.4874 17.3689 15.3032 19.9295 12.7494L23.6399 9.04582L23.6604 11.2639C23.6808 13.3589 23.6876 13.4956 23.8247 13.7216C23.989 14.0092 24.3312 14.2486 24.653 14.3102C25.2008 14.4129 25.8235 14.0089 25.9742 13.4615C26.0222 13.2559 26.0427 12.0717 26.0291 9.49067L26.0086 5.81438L25.8511 5.5611C25.7622 5.42408 25.5774 5.23932 25.4404 5.15035L25.1871 4.99287L21.456 4.97923C18.3615 4.9659 17.6767 4.97954 17.4511 5.06169Z" fill="white"/>
</svg>
