<svg width="31" height="31" viewBox="0 0 31 31" fill="none" xmlns="http://www.w3.org/2000/svg">
<path d="M9.05792 0.399614C8.38708 0.577554 7.79157 1.08409 7.51071 1.71401C7.40128 1.94682 7.38051 2.28907 7.35323 4.65096L7.31913 7.32099L4.64909 7.35509C2.10926 7.38919 1.96542 7.39632 1.67123 7.53303C1.17833 7.76584 0.808503 8.13536 0.562053 8.6419L0.336063 9.1007L0.315603 18.8561C0.301963 28.5978 0.301963 28.6115 0.445803 29.0839C0.568873 29.4947 0.651333 29.6177 1.01403 29.9876C1.38355 30.3506 1.50693 30.4324 1.91768 30.5558C2.39012 30.6996 2.40376 30.6996 12.1455 30.6857L21.9009 30.6652L22.3597 30.4392C22.8662 30.1928 23.2361 29.823 23.4689 29.3301C23.6059 29.0356 23.6127 28.892 23.6468 26.3522L23.6809 23.6822L26.351 23.6481C28.8908 23.614 29.0346 23.6068 29.3288 23.4701C29.8217 23.2373 30.1916 22.8678 30.438 22.3613L30.664 21.9025L30.6845 12.1471C30.6981 2.40532 30.6981 2.39168 30.5546 1.91924C30.4312 1.50849 30.349 1.3851 29.9863 1.01558C29.6236 0.659705 29.4866 0.570735 29.0963 0.447355C28.6307 0.303515 28.5966 0.303515 18.9987 0.310335C11.5977 0.310645 9.29755 0.331104 9.05792 0.399614ZM28.3703 11.9759V21.3206H19.0257H9.68102V11.9759V2.63131H19.0257H28.3703V11.9759ZM7.35323 15.7893V21.9028L7.55163 22.3135C7.78444 22.7996 8.14714 23.1831 8.61958 23.4295L8.96182 23.6143L15.137 23.6347L21.319 23.6484V26.0103V28.3722H11.9744H2.62975V19.0275V9.68288H4.99164H7.35323V15.7893Z" fill="white"/>
<path d="M14.0001 7L14.0001 17M14.0001 17L24.0001 17M14.0001 17L24.0001 7" stroke="white" stroke-width="3" stroke-linecap="round" stroke-linejoin="round"/>
<path d="M9.05779 0.399614C8.38695 0.577554 7.79144 1.08409 7.51058 1.71401C7.40115 1.94682 7.38038 2.28907 7.3531 4.65096L7.319 7.32099L4.64897 7.35509C2.10914 7.38919 1.9653 7.39632 1.67111 7.53303C1.17821 7.76584 0.808381 8.13536 0.561931 8.6419L0.335941 9.1007L0.315481 18.8561C0.301841 28.5978 0.301841 28.6115 0.445681 29.0839C0.568751 29.4947 0.651211 29.6177 1.01391 29.9876C1.38343 30.3506 1.50681 30.4324 1.91756 30.5558C2.39 30.6996 2.40364 30.6996 12.1454 30.6857L21.9008 30.6652L22.3596 30.4392C22.8661 30.1928 23.236 29.823 23.4688 29.3301C23.6058 29.0356 23.6126 28.892 23.6467 26.3522L23.6808 23.6822L26.3508 23.6481C28.8907 23.614 29.0345 23.6068 29.3287 23.4701C29.8216 23.2373 30.1914 22.8678 30.4379 22.3613L30.6639 21.9025L30.6843 12.1471C30.698 2.40532 30.698 2.39168 30.5544 1.91924C30.4311 1.50849 30.3489 1.3851 29.9862 1.01558C29.6235 0.659705 29.4865 0.570735 29.0962 0.447355C28.6306 0.303515 28.5965 0.303515 18.9986 0.310335C11.5976 0.310645 9.29742 0.331104 9.05779 0.399614ZM28.3702 11.9759V21.3206H19.0255H9.68089V11.9759V2.63131H19.0255H28.3702V11.9759ZM7.3531 15.7893V21.9028L7.5515 22.3135C7.78431 22.7996 8.14701 23.1831 8.61945 23.4295L8.96169 23.6143L15.1369 23.6347L21.3189 23.6484V26.0103V28.3722H11.9743H2.62963V19.0275V9.68288H4.99152H7.3531V15.7893Z" fill="white"/>
</svg>
