<svg width="40" height="40" viewBox="0 0 40 40" fill="none" xmlns="http://www.w3.org/2000/svg">
<path d="M0 20C0 8.95431 8.95431 0 20 0C31.0457 0 40 8.95431 40 20C40 31.0457 31.0457 40 20 40C8.95431 40 0 31.0457 0 20Z" fill="white"/>
<path fill-rule="evenodd" clip-rule="evenodd" d="M15.6597 11.3317C15.911 11.2037 16.213 11.2275 16.4411 11.3935L27.4411 19.3935C27.6352 19.5346 27.75 19.7601 27.75 20C27.75 20.24 27.6352 20.4654 27.4411 20.6066L16.4411 28.6066C16.213 28.7725 15.911 28.7964 15.6597 28.6683C15.4083 28.5403 15.25 28.2821 15.25 28V12C15.25 11.7179 15.4083 11.4597 15.6597 11.3317Z" fill="#222225"/>
</svg>
