<svg width="14" height="15" viewBox="0 0 14 15" fill="none" xmlns="http://www.w3.org/2000/svg">
<path fill-rule="evenodd" clip-rule="evenodd" d="M7.00002 0.700012C7.3314 0.700012 7.60003 0.968641 7.60003 1.30001L7.60003 13.7C7.60003 14.0314 7.3314 14.3 7.00002 14.3C6.66865 14.3 6.40002 14.0314 6.40002 13.7L6.40002 1.30001C6.40002 0.968641 6.66865 0.700012 7.00002 0.700012Z" fill="#222225"/>
<path fill-rule="evenodd" clip-rule="evenodd" d="M13.8 7.5C13.8 7.83137 13.5314 8.1 13.2 8.1L0.800049 8.1C0.468678 8.1 0.200049 7.83137 0.200049 7.49999C0.200049 7.16862 0.468678 6.89999 0.800049 6.89999L13.2 6.89999C13.5314 6.89999 13.8 7.16862 13.8 7.5Z" fill="#222225"/>
</svg>
