<svg width="22" height="23" viewBox="0 0 22 23" fill="none" xmlns="http://www.w3.org/2000/svg">
<path d="M10.9999 20.3002L10.6209 20.7653L10.9999 21.0742L11.3789 20.7653L10.9999 20.3002ZM10.9999 2.1002C7.00902 2.1002 3.7999 5.4138 3.7999 9.46909H4.9999C4.9999 6.04775 7.70019 3.3002 10.9999 3.3002V2.1002ZM3.7999 9.46909C3.7999 12.4133 5.56639 15.26 7.23466 17.3085C8.0796 18.3461 8.92301 19.2073 9.55483 19.8092C9.87111 20.1104 10.1353 20.3476 10.3215 20.5103C10.4146 20.5916 10.4883 20.6544 10.5392 20.6974C10.5647 20.7188 10.5845 20.7353 10.5983 20.7467C10.6051 20.7524 10.6105 20.7568 10.6143 20.7599C10.6162 20.7615 10.6177 20.7627 10.6188 20.7636C10.6193 20.7641 10.6198 20.7644 10.6201 20.7647C10.6203 20.7649 10.6205 20.765 10.6206 20.7651C10.6208 20.7652 10.6209 20.7653 10.9999 20.3002C11.3789 19.8351 11.379 19.8351 11.3791 19.8352C11.379 19.8352 11.3791 19.8352 11.3791 19.8352C11.379 19.8351 11.3789 19.835 11.3786 19.8348C11.3781 19.8344 11.3772 19.8337 11.3759 19.8326C11.3734 19.8305 11.3693 19.8271 11.3637 19.8225C11.3524 19.8132 11.3352 19.7988 11.3123 19.7796C11.2666 19.7411 11.1985 19.683 11.1111 19.6067C10.9363 19.4539 10.6849 19.2284 10.3825 18.9403C9.7768 18.3633 8.97021 17.5393 8.16515 16.5508C6.53342 14.5471 4.9999 11.9782 4.9999 9.46909H3.7999ZM10.9999 20.3002C11.3789 20.7653 11.379 20.7652 11.3792 20.7651C11.3793 20.765 11.3795 20.7649 11.3797 20.7647C11.38 20.7644 11.3805 20.7641 11.381 20.7636C11.3821 20.7627 11.3836 20.7615 11.3855 20.7599C11.3893 20.7568 11.3947 20.7524 11.4015 20.7467C11.4153 20.7353 11.4351 20.7188 11.4606 20.6974C11.5115 20.6544 11.5852 20.5916 11.6783 20.5103C11.8645 20.3476 12.1287 20.1104 12.445 19.8092C13.0768 19.2074 13.9202 18.3461 14.7651 17.3086C16.4334 15.2601 18.1999 12.4136 18.1999 9.46957H16.9999C16.9999 11.9784 15.4664 14.5472 13.8347 16.5508C13.0296 17.5394 12.223 18.3633 11.6173 18.9403C11.3149 19.2284 11.0635 19.4539 10.8887 19.6067C10.8013 19.683 10.7332 19.7411 10.6875 19.7796C10.6646 19.7988 10.6474 19.8132 10.6361 19.8225C10.6305 19.8271 10.6264 19.8305 10.6239 19.8326C10.6226 19.8337 10.6217 19.8344 10.6212 19.8348C10.6209 19.835 10.6208 19.8351 10.6207 19.8352C10.6207 19.8352 10.6208 19.8352 10.6207 19.8352C10.6208 19.8351 10.6209 19.8351 10.9999 20.3002ZM18.1999 9.46957C18.1999 5.41434 14.9908 2.1002 10.9999 2.1002V3.3002C14.2996 3.3002 16.9999 6.04817 16.9999 9.46957H18.1999ZM10.9999 12.0547C9.67052 12.0547 8.56753 10.9453 8.56753 9.54443H7.36753C7.36753 11.5791 8.97922 13.2547 10.9999 13.2547V12.0547ZM8.56753 9.54443C8.56753 8.1447 9.67081 7.03516 10.9999 7.03516V5.83516C8.97987 5.83516 7.36753 7.51052 7.36753 9.54443H8.56753ZM10.9999 7.03516C12.329 7.03516 13.4323 8.1447 13.4323 9.54443H14.6323C14.6323 7.51052 13.0199 5.83516 10.9999 5.83516V7.03516ZM13.4323 9.54443C13.4323 10.9453 12.3293 12.0547 10.9999 12.0547V13.2547C13.0206 13.2547 14.6323 11.5791 14.6323 9.54443H13.4323Z" fill="white"/>
</svg>
