<svg width="40" height="40" viewBox="0 0 40 40" fill="none" xmlns="http://www.w3.org/2000/svg">
<g id="icon / qr">
<path id="icon-qr" fill-rule="evenodd" clip-rule="evenodd" d="M18.7274 18.7272H6.00024V6.00006H18.7274V18.7272ZM16.1818 8.54543H8.54547V16.1817H16.1818V8.54543ZM18.7274 33.9999H6.00024V21.2727H18.7274V33.9999ZM16.1818 23.8181H8.54547V31.4545H16.1818V23.8181ZM34.0001 6.00008H21.2729V18.7272H34.0001V6.00008ZM31.4547 16.1817H23.8184V8.54543H31.4547V16.1817ZM11.0912 11.0909H13.6366V13.6363H11.0912V11.0909ZM28.9088 11.0909H26.3634V13.6363H28.9088V11.0909ZM11.0912 26.3636H13.6366V28.909H11.0912V26.3636ZM26.3638 23.8182H28.9092V26.3636H23.8184V23.8182H21.2729V21.2727H26.3638V23.8182ZM23.8184 33.9999H26.3638V31.4545V28.909H23.8184V26.3636H21.2729V28.909V31.4545H23.8184V33.9999ZM31.4543 31.4545H28.9089V33.9999H31.4543V31.4545ZM31.4547 21.2727H34.0001V23.8182H31.4547V21.2727ZM31.4543 31.4545V28.909H28.9089V26.3636H31.4543H33.9998V31.4545H31.4543Z" fill="#222225"/>
</g>
</svg>
