<svg width="20" height="20" viewBox="0 0 20 20" fill="none" xmlns="http://www.w3.org/2000/svg">
<path fill-rule="evenodd" clip-rule="evenodd" d="M8.55717 1.87597C8.61972 1.37554 9.04513 1 9.54945 1H10.4506C10.9549 1 11.3803 1.37554 11.4428 1.87597L11.5662 2.86261C11.6172 3.27079 11.9157 3.59934 12.3018 3.74136C12.4689 3.80287 12.633 3.87089 12.7936 3.94511C13.1668 4.1176 13.61 4.09623 13.9345 3.8438L14.7512 3.20864C15.1492 2.89902 15.7156 2.93428 16.0722 3.29089L16.7094 3.92806C17.066 4.28467 17.1012 4.85102 16.7916 5.24911L16.1564 6.06586C15.904 6.3904 15.8826 6.83351 16.055 7.20673C16.1292 7.36722 16.1972 7.53116 16.2586 7.69825C16.4007 8.08431 16.7292 8.38282 17.1374 8.43384L18.124 8.55717C18.6245 8.61972 19 9.04513 19 9.54945V10.4506C19 10.9549 18.6245 11.3803 18.124 11.4428L17.1374 11.5662C16.7292 11.6172 16.4007 11.9157 16.2586 12.3018C16.1972 12.4689 16.1292 12.6329 16.055 12.7934C15.8825 13.1666 15.9039 13.6098 16.1563 13.9343L16.7916 14.7512C17.1012 15.1492 17.066 15.7156 16.7094 16.0722L16.0722 16.7094C15.7156 17.066 15.1492 17.1012 14.7512 16.7916L13.9343 16.1563C13.6098 15.9039 13.1666 15.8825 12.7934 16.055C12.6329 16.1292 12.4689 16.1972 12.3018 16.2586C11.9157 16.4007 11.6172 16.7292 11.5662 17.1374L11.4428 18.124C11.3803 18.6245 10.9549 19 10.4506 19H9.54945C9.04513 19 8.61972 18.6245 8.55717 18.124L8.43384 17.1374C8.38282 16.7292 8.08431 16.4007 7.69825 16.2586C7.53116 16.1972 7.36722 16.1292 7.20673 16.055C6.83351 15.8826 6.3904 15.904 6.06586 16.1564L5.24911 16.7916C4.85102 17.1012 4.28467 17.066 3.92806 16.7094L3.29089 16.0722C2.93428 15.7156 2.89902 15.1492 3.20864 14.7512L3.8438 13.9345C4.09623 13.61 4.1176 13.1668 3.94511 12.7936C3.87089 12.633 3.80287 12.4689 3.74136 12.3018C3.59933 11.9157 3.27079 11.6172 2.86261 11.5662L1.87597 11.4428C1.37554 11.3803 1 10.9549 1 10.4506V9.54945C1 9.04513 1.37554 8.61972 1.87597 8.55717L2.86261 8.43384C3.27079 8.38282 3.59933 8.08431 3.74136 7.69825C3.80285 7.5311 3.87085 7.3671 3.94504 7.20655C4.11752 6.83332 4.09615 6.39019 3.84373 6.06565L3.20864 5.24911C2.89902 4.85102 2.93428 4.28467 3.29089 3.92806L3.92806 3.29089C4.28467 2.93428 4.85102 2.89902 5.24911 3.20864L6.06565 3.84373C6.39019 4.09615 6.83332 4.11752 7.20655 3.94504C7.3671 3.87085 7.5311 3.80285 7.69825 3.74136C8.08431 3.59933 8.38282 3.27079 8.43384 2.86261L8.55717 1.87597ZM10 13.3333C11.8409 13.3333 13.3333 11.8409 13.3333 10C13.3333 8.15905 11.8409 6.66667 10 6.66667C8.15905 6.66667 6.66667 8.15905 6.66667 10C6.66667 11.8409 8.15905 13.3333 10 13.3333Z" fill="#222225"/>
</svg>
