<svg width="40" height="40" viewBox="0 0 40 40" fill="none" xmlns="http://www.w3.org/2000/svg">
<g id="icon / sign-language">
<g id="Group 3">
<mask id="mask0_883_1984" style="mask-type:alpha" maskUnits="userSpaceOnUse" x="2" y="2" width="36" height="36">
<path id="Clip 2" fill-rule="evenodd" clip-rule="evenodd" d="M2 2H38V38H2V2Z" fill="white"/>
</mask>
<g mask="url(#mask0_883_1984)">
<path id="Fill 1" fill-rule="evenodd" clip-rule="evenodd" d="M8.94294 12.7163C9.13838 12.7016 9.23499 12.7235 9.29283 12.6858C10.7212 11.7566 12.1581 10.8391 13.5567 9.86668C13.7597 9.72577 13.8725 9.31293 13.8613 9.0324C13.8268 8.15386 13.7179 7.27788 13.6286 6.40189C13.5143 5.28034 13.4393 4.15182 13.2568 3.04119C13.1045 2.11432 12.4634 1.80289 11.6169 2.12048C10.7539 2.44434 10.4656 3.17826 10.3114 3.98571C10.0792 5.20135 9.85836 6.4199 9.66965 7.64298C9.41104 9.31816 9.18727 10.9987 8.94294 12.7163ZM20.6661 8.50141C21.0711 8.99081 21.4095 9.42003 21.7694 9.83043C22.7482 10.9469 22.6372 12.8025 21.4423 13.6403C20.1816 14.5243 19.0279 15.5634 17.8513 16.5628C17.6007 16.7757 17.4528 17.1098 17.2576 17.388C17.5666 17.5363 17.8635 17.7762 18.1866 17.8188C21.6017 18.2694 25.0195 18.7003 28.4412 19.0985C28.7904 19.1391 29.2038 19.0002 29.5272 18.8301C32.039 17.5089 34.5343 16.1564 37.0384 14.8208C37.9076 14.3571 38.209 13.6861 37.8542 12.9449C37.4775 12.1578 36.6693 11.9789 35.7404 12.4276C32.8875 13.8056 30.0337 15.1819 27.1582 16.5111C26.8767 16.6413 26.2792 16.5737 26.1144 16.3682C25.7737 15.9433 26.1958 15.6339 26.5546 15.3976C27.2681 14.9279 27.9812 14.4578 28.6965 13.991C31.3283 12.274 33.9631 10.5619 36.5919 8.84049C37.6574 8.1427 37.852 7.17716 37.1569 6.14737C36.5606 5.26407 35.8163 5.19623 34.7326 5.91726C31.5179 8.05628 28.2961 10.1847 25.0918 12.3391C24.6096 12.6633 24.1919 12.8135 23.8183 12.2779C23.4664 11.7733 23.8589 11.472 24.2064 11.1828C26.6237 9.17132 29.0382 7.1566 31.4593 5.14977C32.2918 4.45953 32.4944 3.5933 31.9714 2.84649C31.4323 2.07691 30.6284 1.98329 29.6494 2.61649C27.5889 3.94899 25.5383 5.29625 23.4855 6.64048C22.5047 7.28275 21.5286 7.93187 20.6661 8.50141ZM29.018 24.4826C29.0183 24.479 29.0186 24.4755 29.0188 24.472C29.2936 24.4932 29.5682 24.5308 29.8432 24.5325C30.7427 24.5383 31.2658 24.108 31.3258 23.33C31.3926 22.4629 30.9681 21.9435 30.0528 21.8162C25.6327 21.2013 21.211 20.5978 16.7912 19.9799C15.619 19.816 14.44 19.6675 13.2899 19.4006C12.9348 19.3181 12.4984 18.9108 12.4094 18.5709C12.3392 18.3028 12.7063 17.8783 12.9506 17.5823C13.1558 17.3336 13.4647 17.1706 13.7267 16.9684C15.4733 15.6212 17.2248 14.2804 18.9635 12.9228C19.5788 12.4422 19.7692 11.816 19.424 11.0851C19.0752 10.3464 18.4816 10.0113 17.6768 10.1692C17.3107 10.241 16.9334 10.3759 16.6196 10.5748C15.2233 11.4599 13.8391 12.3648 12.4675 13.288C9.9542 14.9795 7.39525 16.6119 4.96904 18.4214C3.60595 19.4381 2.53934 20.7649 2.14683 22.5633C1.44044 25.7992 3.33584 30.4481 6.69211 31.8347C10.2798 33.3165 13.8456 34.8517 17.4385 36.3202C18.8896 36.9132 20.3839 37.4022 21.8668 37.9146C22.3467 38.0804 22.8099 38.0403 23.031 37.4728C23.2454 36.9224 23.0462 36.5072 22.5649 36.2125C22.3538 36.0834 22.1276 35.9791 21.9068 35.8663C20.1896 34.9886 18.4598 34.134 16.7667 33.2123C16.4815 33.0571 16.3535 32.6127 16.153 32.3017C16.535 32.1921 16.9526 31.9254 17.2925 32.0022C18.2825 32.2261 19.2409 32.5892 20.2126 32.8945C22.261 33.5378 24.3058 34.1926 26.3608 34.8139C27.0466 35.0211 27.7009 34.6737 27.9177 34.0755C28.136 33.4732 27.8214 32.8649 27.1287 32.5578C26.9779 32.491 26.8215 32.4363 26.6666 32.3792C24.0068 31.3982 21.3459 30.4204 18.6879 29.4345C18.2327 29.2656 17.7649 29.0405 17.9394 28.4361C18.1032 27.8679 18.5742 27.944 19.0338 28.0333C21.2502 28.4637 23.4673 28.891 25.6869 29.3043C27.1746 29.5812 28.6629 29.8597 30.1588 30.0843C30.83 30.1851 31.268 29.8082 31.3933 29.1394C31.5214 28.4563 31.2549 27.9499 30.6117 27.6713C30.4115 27.5845 30.1906 27.5432 29.9771 27.4899C26.5314 26.6293 23.0816 25.7845 19.6447 24.8903C19.256 24.7891 18.624 24.374 18.6478 24.1666C18.722 23.5197 19.354 23.733 19.7872 23.7652C22.865 23.9928 25.9412 24.2409 29.018 24.4826Z" fill="#222225"/>
</g>
</g>
</g>
</svg>
