<svg width="40" height="40" viewBox="0 0 40 40" fill="none" xmlns="http://www.w3.org/2000/svg">
<path d="M20 36L19.3683 36.7752C19.7361 37.0749 20.2639 37.0749 20.6317 36.7752L20 36ZM20 3C12.7962 3 7 8.98185 7 16.3071H9C9 10.0384 13.9482 5 20 5V3ZM7 16.3071C7 21.6273 10.1941 26.782 13.2246 30.5032C14.7578 32.3859 16.2885 33.949 17.4353 35.0414C18.0093 35.5881 18.4887 36.0185 18.8264 36.3135C18.9952 36.4611 19.1287 36.5749 19.221 36.6526C19.2671 36.6914 19.303 36.7213 19.3278 36.7418C19.3402 36.7521 19.3498 36.76 19.3566 36.7656C19.36 36.7684 19.3627 36.7706 19.3646 36.7722C19.3656 36.773 19.3664 36.7737 19.367 36.7742C19.3673 36.7744 19.3677 36.7747 19.3678 36.7748C19.3681 36.775 19.3683 36.7752 20 36C20.6317 35.2248 20.6318 35.2249 20.6319 35.225C20.6319 35.2249 20.6319 35.225 20.6319 35.2249C20.6318 35.2248 20.6315 35.2246 20.631 35.2242C20.6301 35.2234 20.6284 35.2221 20.626 35.2201C20.6213 35.2162 20.6137 35.21 20.6034 35.2015C20.5828 35.1844 20.5512 35.1581 20.5095 35.123C20.426 35.0526 20.3017 34.9467 20.1424 34.8075C19.8238 34.5291 19.3657 34.118 18.8147 33.5932C17.7115 32.5424 16.2422 31.0414 14.7754 29.2403C11.8059 25.5938 9 20.902 9 16.3071H7ZM20 36C20.6317 36.7752 20.6319 36.775 20.6322 36.7748C20.6323 36.7747 20.6327 36.7744 20.633 36.7742C20.6336 36.7737 20.6344 36.773 20.6354 36.7722C20.6373 36.7706 20.64 36.7684 20.6434 36.7656C20.6502 36.76 20.6598 36.7521 20.6722 36.7418C20.697 36.7213 20.7329 36.6914 20.779 36.6526C20.8713 36.5749 21.0048 36.4611 21.1736 36.3135C21.5113 36.0185 21.9907 35.5882 22.5647 35.0414C23.7115 33.9491 25.2422 32.386 26.7754 30.5033C29.8058 26.7822 33 21.6277 33 16.308H31C31 20.9024 28.1942 25.594 25.2246 29.2404C23.7578 31.0414 22.2885 32.5424 21.1853 33.5932C20.6343 34.118 20.1762 34.5291 19.8576 34.8075C19.6983 34.9467 19.574 35.0526 19.4905 35.123C19.4488 35.1581 19.4172 35.1844 19.3966 35.2015C19.3863 35.21 19.3787 35.2162 19.374 35.2201C19.3716 35.2221 19.3699 35.2234 19.369 35.2242C19.3685 35.2246 19.3682 35.2248 19.3681 35.2249C19.3681 35.225 19.3681 35.2249 19.3681 35.225C19.3682 35.2249 19.3683 35.2248 20 36ZM33 16.308C33 8.98282 27.2039 3 20 3V5C26.0517 5 31 10.0392 31 16.308H33Z" fill="#222225"/>
<path d="M25 16C25 18.7614 22.7614 21 20 21C17.2386 21 15 18.7614 15 16C15 13.2386 17.2386 11 20 11C22.7614 11 25 13.2386 25 16Z" stroke="#222225" stroke-width="2"/>
</svg>
