<svg width="127" height="153" viewBox="0 0 127 153" fill="none" xmlns="http://www.w3.org/2000/svg">
<path fill-rule="evenodd" clip-rule="evenodd" d="M62.7798 0.139073C63.0936 -0.0463579 63.4834 -0.0463578 63.7972 0.139074L79.3693 9.34078C79.6143 9.48556 79.786 9.72787 79.8415 10.007C79.8969 10.2861 79.8307 10.5757 79.6596 10.8031L64.1309 31.4352L80.8813 46.9246C81.2482 47.2639 81.3083 47.822 81.0221 48.2316L70.9982 62.577L94.9201 93.0499C95.1334 93.3216 95.1914 93.6842 95.0734 94.0089L84.9021 122.002L98.8164 130.651C99.1147 130.836 99.2938 131.164 99.2883 131.516C99.2828 131.867 99.0935 132.189 98.7896 132.365L63.7895 152.632C63.4863 152.807 63.1133 152.811 62.8063 152.642L0.517903 118.367C0.198454 118.192 0 117.856 0 117.491V37.8068C0 37.4532 0.186799 37.1258 0.491271 36.9459L62.7798 0.139073ZM2 39.5593V116.9L62.2884 150.075L62.2885 75.1843L2 39.5593ZM64.2885 75.2274L64.2884 150.032L96.3453 131.47L83.1572 123.272C82.7557 123.022 82.5838 122.526 82.7453 122.081L93.0039 93.8479L74.3682 70.1088L64.2885 75.2274ZM73.1092 68.505L68.9674 63.2291C68.6956 62.8829 68.6822 62.3996 68.9343 62.0388L78.8831 47.8009L62.1095 32.29C61.7327 31.9416 61.6809 31.3645 61.9895 30.9545L77.3892 10.4938L63.2885 2.16154L2.96568 37.8068L63.3249 73.4736L73.1092 68.505ZM92.4505 17.4292C92.7733 17.2072 93.196 17.1942 93.5319 17.3959L126.092 36.9495C126.393 37.1303 126.577 37.4557 126.577 37.8068V114.96C126.577 115.312 126.391 115.638 126.089 115.819L105.3 128.198C104.869 128.454 104.315 128.352 104.004 127.959L94.9393 116.491C94.7332 116.231 94.6701 115.885 94.771 115.568L102.262 92.0472L80.7075 62.5515C80.4802 62.2405 80.4518 61.8266 80.6344 61.4874L88.3466 47.1648L73.8808 31.5862C73.6831 31.3732 73.5878 31.0848 73.6197 30.7959C73.6516 30.5071 73.8076 30.2464 74.0471 30.0817L92.4505 17.4292ZM93.0536 19.4416L76.1343 31.0738L90.2992 46.3283C90.5904 46.6419 90.6498 47.106 90.4469 47.4828L82.6943 61.8805L83.293 62.6999L123.653 37.818L93.0536 19.4416ZM124.577 39.5981L84.4767 64.3196L104.176 91.277C104.365 91.5346 104.419 91.8665 104.322 92.1705L96.838 115.668L105.03 126.031L124.577 114.391V39.5981Z" fill="white"/>
<path fill-rule="evenodd" clip-rule="evenodd" d="M62.7798 0.139073C63.0936 -0.0463579 63.4834 -0.0463578 63.7972 0.139074L79.3693 9.34078C79.6143 9.48556 79.786 9.72787 79.8415 10.007C79.8969 10.2861 79.8307 10.5757 79.6596 10.8031L64.1309 31.4352L80.8813 46.9246C81.2482 47.2639 81.3083 47.822 81.0221 48.2316L70.9982 62.577L94.9201 93.0499C95.1334 93.3216 95.1914 93.6842 95.0734 94.0089L84.9021 122.002L98.8164 130.651C99.1147 130.836 99.2938 131.164 99.2883 131.516C99.2828 131.867 99.0935 132.189 98.7896 132.365L63.7895 152.632C63.4863 152.807 63.1133 152.811 62.8063 152.642L0.517903 118.367C0.198454 118.192 0 117.856 0 117.491V37.8068C0 37.4532 0.186799 37.1258 0.491271 36.9459L62.7798 0.139073ZM2 39.5593V116.9L62.2884 150.075L62.2885 75.1843L2 39.5593ZM64.2885 75.2274L64.2884 150.032L96.3453 131.47L83.1572 123.272C82.7557 123.022 82.5838 122.526 82.7453 122.081L93.0039 93.8479L74.3682 70.1088L64.2885 75.2274ZM73.1092 68.505L68.9674 63.2291C68.6956 62.8829 68.6822 62.3996 68.9343 62.0388L78.8831 47.8009L62.1095 32.29C61.7327 31.9416 61.6809 31.3645 61.9895 30.9545L77.3892 10.4938L63.2885 2.16154L2.96568 37.8068L63.3249 73.4736L73.1092 68.505ZM92.4505 17.4292C92.7733 17.2072 93.196 17.1942 93.5319 17.3959L126.092 36.9495C126.393 37.1303 126.577 37.4557 126.577 37.8068V114.96C126.577 115.312 126.391 115.638 126.089 115.819L105.3 128.198C104.869 128.454 104.315 128.352 104.004 127.959L94.9393 116.491C94.7332 116.231 94.6701 115.885 94.771 115.568L102.262 92.0472L80.7075 62.5515C80.4802 62.2405 80.4518 61.8266 80.6344 61.4874L88.3466 47.1648L73.8808 31.5862C73.6831 31.3732 73.5878 31.0848 73.6197 30.7959C73.6516 30.5071 73.8076 30.2464 74.0471 30.0817L92.4505 17.4292ZM93.0536 19.4416L76.1343 31.0738L90.2992 46.3283C90.5904 46.6419 90.6498 47.106 90.4469 47.4828L82.6943 61.8805L83.293 62.6999L123.653 37.818L93.0536 19.4416ZM124.577 39.5981L84.4767 64.3196L104.176 91.277C104.365 91.5346 104.419 91.8665 104.322 92.1705L96.838 115.668L105.03 126.031L124.577 114.391V39.5981Z" fill="black"/>
</svg>
