<svg width="158" height="110" viewBox="0 0 158 110" fill="none" xmlns="http://www.w3.org/2000/svg">
<path d="M31.1719 80.3286V76.7779H29.2199L28.8787 77.9796H26.8858V73.0905C27.3908 73.0496 27.8413 72.9813 28.2371 72.872V70.7689H23.0092V72.872C23.2959 72.9403 23.5962 72.9949 23.9374 73.0496V78.0479C23.6781 78.0889 23.3914 78.1435 23.0638 78.2255V80.3286H31.1719Z" fill="black"/>
<path d="M39.0329 75.4258C39.0329 73.8144 38.0638 72.7628 36.5077 72.7628H35.8116C34.8288 72.7628 33.4501 72.872 32.3445 73.0632V75.4395H34.4602L34.5694 74.8386C34.8015 74.8113 35.1837 74.7976 35.4021 74.7976C35.9344 74.7976 36.2074 75.0298 36.2074 75.5488V75.8629C35.4703 75.9175 34.897 75.9585 33.9415 76.054C32.7676 76.1633 31.7439 76.3135 31.7439 77.9387V78.3484C31.7439 80.3559 32.6175 80.4378 33.8187 80.4378H34.0234C34.938 80.4378 35.6068 79.9189 36.2074 79.4273V80.3149H39.77V78.3347C39.497 78.2664 39.2513 78.2118 39.0329 78.1708V75.4258ZM35.1427 78.403C34.7605 78.403 34.6104 78.2664 34.6104 77.9523V77.6792C34.6104 77.3787 34.7742 77.2149 35.1837 77.1329C35.5795 77.0373 35.9344 76.9827 36.2074 76.9417V78.0616C35.9481 78.2391 35.5932 78.403 35.3202 78.403H35.1427Z" fill="black"/>
<path d="M48.3032 74.7976C48.3032 73.5276 47.5524 72.7628 46.3785 72.7628H46.2011C45.2729 72.7628 44.3856 73.3637 43.7304 73.8553V72.9403H40.1815V74.9205C40.4272 74.9888 40.6729 75.0434 40.8913 75.0844V78.1982C40.6592 78.2391 40.4135 78.2801 40.1678 78.3484V80.3286H44.4675V78.3484C44.2218 78.2801 43.9761 78.2391 43.7304 78.1982V75.4532C44.0444 75.2893 44.3856 75.1664 44.6586 75.1664H44.8224C45.4503 75.1664 45.4776 75.3166 45.4776 76.3681V80.3286H49.0539V78.3484C48.7263 78.2664 48.4943 78.2118 48.3032 78.1708V74.7976Z" fill="black"/>
<path d="M56.8698 70.7689H53.2798V72.517C53.5938 72.5716 53.8258 72.6399 54.0306 72.6945V73.432C53.2525 73.0223 52.8157 72.8038 51.8602 72.8038H51.6555C50.4816 72.8038 49.4579 73.6641 49.4579 75.2756V77.5973C49.4579 79.6321 50.3587 80.4378 51.5326 80.4378H51.7374C52.6519 80.4378 53.4163 79.8643 54.0306 79.3726V80.3149H57.6069V78.3347C57.3202 78.2664 57.0882 78.2118 56.8698 78.1708V70.7689ZM52.9795 78.0343C52.3516 78.0343 52.297 77.8567 52.297 76.7915V75.9858C52.297 75.4258 52.3516 75.1254 52.9795 75.1254H53.157C53.43 75.1254 53.6893 75.1527 54.0306 75.2893V77.7748C53.7303 77.9387 53.43 78.0343 53.157 78.0343H52.9795Z" fill="black"/>
<path d="M61.5117 72.7628C59.0957 72.7628 57.9491 73.7461 57.9491 75.8902V77.0783C57.9491 79.6048 58.8909 80.5198 61.5526 80.5198H62.0713C63.1497 80.5198 64.2007 80.2467 65.1153 79.6594V77.7611H62.8494L62.7811 78.1299C62.6719 78.4849 62.4262 78.6215 62.0167 78.6215H61.539C61.1295 78.6215 60.7609 78.4303 60.7609 77.8704V77.4334H65.32V75.7536C65.32 73.7051 64.269 72.7628 61.9758 72.7628H61.5117ZM62.7538 75.9585H60.7609V75.3302C60.7609 74.8659 61.0885 74.5928 61.5936 74.5928H61.9758C62.4262 74.5928 62.7538 74.8523 62.7538 75.2893V75.9585Z" fill="black"/>
<path d="M65.9591 75.2893C65.9591 76.3545 66.3686 77.0373 68.0885 77.3378C69.9858 77.6792 70.1223 77.7338 70.1223 78.0889V78.1708C70.1223 78.4576 69.9449 78.6488 69.5627 78.6488H69.1941C68.8392 78.6488 68.4297 78.4849 68.3069 78.1572L68.2387 77.6928H65.9591V79.8096C66.8873 80.4105 68.266 80.5198 69.2897 80.5198H69.822C71.9241 80.5198 72.9206 79.7413 72.9206 77.9933V77.5017C72.9206 76.6276 72.3746 76.0131 70.8321 75.7263C68.8939 75.3576 68.6345 75.3576 68.6345 75.0434V74.9752C68.6345 74.7157 68.8529 74.6201 69.3443 74.6201C69.6036 74.6201 69.8903 74.6338 70.1496 74.6747L70.3407 75.3302H72.6612V73.1998C71.7057 72.8857 70.3544 72.7628 69.3306 72.7628H69.0713C66.9556 72.7628 65.9591 73.4729 65.9591 75.0161V75.2893Z" fill="black"/>
<path d="M85.8983 74.7976C85.8983 73.5276 85.1476 72.7628 83.9737 72.7628H83.7963C82.8408 72.7628 81.9399 73.391 81.2847 73.8963C81.0117 73.1588 80.3974 72.7628 79.5375 72.7628H79.36C78.541 72.7628 77.7766 73.2135 77.1488 73.6778V72.9403H73.5998V74.9205C73.8455 74.9888 74.0912 75.0434 74.3096 75.0844V78.1982C74.0775 78.2391 73.8318 78.2801 73.5861 78.3484V80.3286H77.8858V78.3484C77.6401 78.2801 77.3944 78.2391 77.1488 78.1982V75.3712C77.3944 75.2483 77.6128 75.1664 77.8176 75.1664H77.9814C78.6093 75.1664 78.6229 75.3166 78.6229 76.3681V80.3286H82.2129V78.3484C81.8853 78.2664 81.6532 78.2118 81.4621 78.1708V75.4122C81.7488 75.262 82.0081 75.1664 82.2538 75.1664H82.4176C83.0455 75.1664 83.0728 75.3166 83.0728 76.3681V80.3286H86.6491V78.3484C86.3351 78.2664 86.0894 78.2255 85.8983 78.1845V74.7976Z" fill="black"/>
<path d="M94.7423 72.9403H91.166V74.9205L91.9031 75.0844V77.6382C91.6028 77.8021 91.2616 77.925 90.9886 77.925H90.8248C90.1969 77.925 90.1696 77.7748 90.1696 76.7232V72.9403H86.5933V74.9205C86.8936 74.9888 87.1257 75.0434 87.3441 75.0844V78.2937C87.3441 79.7687 87.8764 80.3286 89.2551 80.3286H89.4462C90.3607 80.3286 91.2616 79.7277 91.9031 79.277V80.3149H95.4794V78.3347C95.2064 78.2664 94.9607 78.2118 94.7423 78.1708V72.9403Z" fill="black"/>
<path d="M95.9916 75.2893C95.9916 76.3545 96.4011 77.0373 98.121 77.3378C100.018 77.6792 100.155 77.7338 100.155 78.0889V78.1708C100.155 78.4576 99.9774 78.6488 99.5952 78.6488H99.2266C98.8717 78.6488 98.4622 78.4849 98.3394 78.1572L98.2711 77.6928H95.9916V79.8096C96.9198 80.4105 98.2984 80.5198 99.3222 80.5198H99.8545C101.957 80.5198 102.953 79.7413 102.953 77.9933V77.5017C102.953 76.6276 102.407 76.0131 100.865 75.7263C98.9263 75.3576 98.667 75.3576 98.667 75.0434V74.9752C98.667 74.7157 98.8854 74.6201 99.3768 74.6201C99.6361 74.6201 99.9228 74.6338 100.182 74.6747L100.373 75.3302H102.694V73.1998C101.738 72.8857 100.387 72.7628 99.3631 72.7628H99.1038C96.988 72.7628 95.9916 73.4729 95.9916 75.0161V75.2893Z" fill="black"/>
<path d="M107.034 72.7628C104.618 72.7628 103.471 73.7461 103.471 75.8902V77.0783C103.471 79.6048 104.413 80.5198 107.075 80.5198H107.593C108.672 80.5198 109.723 80.2467 110.637 79.6594V77.7611H108.371L108.303 78.1299C108.194 78.4849 107.948 78.6215 107.539 78.6215H107.061C106.651 78.6215 106.283 78.4303 106.283 77.8704V77.4334H110.842V75.7536C110.842 73.7051 109.791 72.7628 107.498 72.7628H107.034ZM108.276 75.9585H106.283V75.3302C106.283 74.8659 106.61 74.5928 107.116 74.5928H107.498C107.948 74.5928 108.276 74.8523 108.276 75.2893V75.9585Z" fill="black"/>
<path d="M114.965 72.7628C112.549 72.7628 111.402 73.7461 111.402 75.8902V77.0783C111.402 79.6048 112.344 80.5198 115.006 80.5198H115.525C116.603 80.5198 117.654 80.2467 118.569 79.6594V77.7611H116.303L116.234 78.1299C116.125 78.4849 115.88 78.6215 115.47 78.6215H114.992C114.583 78.6215 114.214 78.4303 114.214 77.8704V77.4334H118.773V75.7536C118.773 73.7051 117.722 72.7628 115.429 72.7628H114.965ZM116.207 75.9585H114.214V75.3302C114.214 74.8659 114.542 74.5928 115.047 74.5928H115.429C115.88 74.5928 116.207 74.8523 116.207 75.2893V75.9585Z" fill="black"/>
<path d="M127.443 74.7976C127.443 73.5276 126.693 72.7628 125.519 72.7628H125.341C124.413 72.7628 123.526 73.3637 122.871 73.8553V72.9403H119.322V74.9205C119.567 74.9888 119.813 75.0434 120.031 75.0844V78.1982C119.799 78.2391 119.554 78.2801 119.308 78.3484V80.3286H123.608V78.3484C123.362 78.2801 123.116 78.2391 122.871 78.1982V75.4532C123.185 75.2893 123.526 75.1664 123.799 75.1664H123.963C124.591 75.1664 124.618 75.3166 124.618 76.3681V80.3286H128.194V78.3484C127.867 78.2664 127.634 78.2118 127.443 78.1708V74.7976Z" fill="black"/>
<path d="M25.6573 91.6712H23.1867V94.3479C24.8383 94.7849 25.398 94.9352 26.7356 94.9352H27.5137C30.0662 94.9352 31.1992 94.0338 31.1992 92.0263V91.4391C31.1992 90.0188 30.7078 89.4042 29.2745 89.0355L26.6264 88.38C26.2715 88.298 26.1487 88.1341 26.1487 87.8474V87.7654C26.1487 87.3557 26.3125 87.2328 26.8039 87.2328H27.3908C27.7048 87.2328 28.0051 87.2328 28.2644 87.3557L28.5784 88.3663H30.9262V85.4438C29.5885 85.1433 28.592 84.9931 27.2816 84.9931H26.7493C24.1695 84.9931 23.0638 85.8671 23.0638 87.9156V88.0249C23.0638 89.7593 23.487 90.2919 24.811 90.6879L27.268 91.3161C28.1006 91.5483 28.2508 91.6849 28.2508 92.0536V92.1765C28.2235 92.6135 28.0733 92.7228 27.3362 92.7228H27.0905C26.5855 92.7228 26.3261 92.6955 25.9712 92.6272L25.6573 91.6712Z" fill="black"/>
<path d="M38.7028 92.1356H36.4096L36.3414 92.3814C36.2458 92.7501 35.9865 92.914 35.5906 92.914H35.3722C34.9627 92.914 34.6215 92.7638 34.6215 92.1219V90.087C34.6215 89.4862 34.9081 89.2403 35.4405 89.2403C35.7681 89.2403 36.0001 89.2403 36.2731 89.2676L36.5188 90.4831H38.6345V87.5059C37.5289 87.3011 36.8054 87.1782 35.7954 87.1782H34.9764C32.9289 87.1782 31.7823 88.1478 31.7823 89.9778V91.9034C31.7823 93.9246 32.847 94.9352 35.0719 94.9352H35.6452C36.7099 94.9352 37.7882 94.6211 38.7028 94.0748V92.1356Z" fill="black"/>
<path d="M47.3434 92.5999V89.213C47.3434 87.9429 46.5927 87.1782 45.4188 87.1782H45.2413C44.3131 87.1782 43.4259 87.7791 42.7707 88.2707V85.1843H39.2217V87.1645C39.4674 87.2328 39.7131 87.2874 39.9315 87.3284V92.6135C39.6994 92.6545 39.4537 92.6955 39.208 92.7638V94.744H43.5078V92.7638C43.2621 92.6955 43.0164 92.6545 42.7707 92.6135V89.8685C43.0846 89.7047 43.4259 89.5817 43.6989 89.5817H43.8627C44.4906 89.5817 44.5179 89.732 44.5179 90.7835V94.744H48.0941V92.7638L47.3434 92.5999Z" fill="black"/>
<path d="M52.075 85.1843H48.526V87.1645C48.7717 87.2328 49.0174 87.2874 49.2358 87.3284V92.6135C49.0038 92.6545 48.7581 92.6955 48.5124 92.7638V94.744H52.8121V92.7638C52.5664 92.6955 52.3207 92.6545 52.075 92.6135V85.1843Z" fill="black"/>
<path d="M56.7529 87.1782C54.3369 87.1782 53.1903 88.1615 53.1903 90.3056V91.4937C53.1903 94.0202 54.1321 94.9352 56.7938 94.9352H57.3125C58.3909 94.9352 59.4419 94.662 60.3565 94.0748V92.1765H58.0906L58.0223 92.5452C57.9131 92.9003 57.6674 93.0369 57.2579 93.0369H56.7802C56.3707 93.0369 56.0021 92.8457 56.0021 92.2858V91.8488H60.5612V90.169C60.5612 88.1205 59.5102 87.1782 57.217 87.1782H56.7529ZM57.995 90.3738H56.0021V89.7456C56.0021 89.2813 56.3297 89.0082 56.8348 89.0082H57.217C57.6674 89.0082 57.995 89.2676 57.995 89.7047V90.3738Z" fill="black"/>
<path d="M61.2003 89.7047C61.2003 90.7699 61.6098 91.4527 63.3297 91.7532C65.227 92.0946 65.3635 92.1492 65.3635 92.5043V92.5862C65.3635 92.873 65.1861 93.0642 64.8039 93.0642H64.4353C64.0804 93.0642 63.6709 92.9003 63.5481 92.5726L63.4798 92.1082H61.2003V94.225C62.1285 94.8259 63.5071 94.9352 64.5309 94.9352H65.0632C67.1653 94.9352 68.1618 94.1567 68.1618 92.4087V91.917C68.1618 91.043 67.6158 90.4285 66.0733 90.1417C64.135 89.7729 63.8757 89.7729 63.8757 89.4588V89.3906C63.8757 89.1311 64.0941 89.0355 64.5855 89.0355C64.8448 89.0355 65.1315 89.0491 65.3908 89.0901L65.5819 89.7456H67.9024V87.6152C66.9469 87.3011 65.5956 87.1782 64.5718 87.1782H64.3125C62.1968 87.1782 61.2003 87.8883 61.2003 89.4315V89.7047Z" fill="black"/>
<path d="M80.2606 87.3557H76.5751V89.3359C76.8072 89.3906 77.0256 89.4452 77.244 89.4862L76.7116 92.1765H76.698L75.3193 87.3557H73.1763L71.9888 92.1765H71.9615L71.4428 89.4452C71.6066 89.4042 71.7704 89.3769 71.9342 89.3359V87.3557H68.2487V89.3359C68.4944 89.4042 68.7128 89.4452 68.9175 89.4862L70.2279 94.744H73.1899L73.9816 91.8624L74.9235 94.744H78.2814L79.5918 89.4862C79.7965 89.4452 80.0286 89.4042 80.2606 89.3359V87.3557Z" fill="black"/>
<path d="M82.9407 86.8777C83.8006 86.8777 84.4968 86.3178 84.4968 85.4574C84.4968 84.5971 83.8006 84.0371 82.9407 84.0371C82.0807 84.0371 81.3709 84.5971 81.3709 85.4574C81.3709 86.3178 82.0807 86.8777 82.9407 86.8777ZM84.3603 87.3557H80.8113V89.3359C81.057 89.4042 81.3027 89.4588 81.5211 89.4998V92.6135C81.289 92.6545 81.0433 92.6955 80.7976 92.7638V94.744H85.0974V92.7638C84.8517 92.6955 84.606 92.6545 84.3603 92.6135V87.3557Z" fill="black"/>
<path d="M93.449 87.3557H91.265C90.7736 87.2328 90.173 87.1782 89.4223 87.1782H89.2039C86.6786 87.1782 85.7641 87.7791 85.7641 89.5681V89.8685C85.7641 90.7426 86.0098 91.3298 86.5558 91.6849C86.119 91.999 85.7914 92.3814 85.7914 93.0232V93.2691C85.7914 93.8017 85.9825 94.0475 86.2418 94.2796C85.3819 94.7713 85.3136 95.2629 85.3136 95.9594V96.2326C85.3136 97.2022 85.9142 97.489 88.4258 97.489H89.7908C91.8656 97.489 93.3671 96.7652 93.3671 94.7303V94.4845C93.3671 93.2144 92.6436 92.5862 91.1695 92.5862H88.4258C88.1255 92.5862 87.8389 92.5589 87.8389 92.395V92.2858C87.8389 92.2038 87.8798 92.1765 87.9344 92.1356C88.1528 92.1765 88.4395 92.2175 88.7261 92.2175H89.7908C91.9475 92.2175 92.8484 91.5756 92.8484 89.9505V89.6091C92.8484 89.4725 92.8484 89.3632 92.8211 89.2267C93.0258 89.1857 93.1896 89.1311 93.449 89.0491V87.3557ZM90.0775 89.9505C90.0775 90.3875 89.8454 90.4694 89.354 90.4694H89.2721C88.7534 90.4694 88.535 90.3875 88.535 89.9505V89.4042C88.535 88.9809 88.7534 88.8716 89.2721 88.8716H89.395C89.8864 88.8716 90.0775 88.9809 90.0775 89.4042V89.9505ZM90.5552 94.7303C90.8555 94.7303 90.9511 94.7576 90.9511 94.9898V95.14C90.9511 95.4405 90.7873 95.5497 90.1184 95.5497H88.1119C87.7979 95.5497 87.6478 95.4951 87.6478 95.2083V95.0854C87.6478 94.9079 87.7706 94.8123 87.9208 94.7167C88.0709 94.7303 88.303 94.7303 88.5896 94.7303H90.5552Z" fill="black"/>
<path d="M98.5134 89.3223H93.8998V91.6166H98.5134V89.3223Z" fill="black"/>
<path d="M109.31 85.1843H104.737V87.2874C104.956 87.342 105.188 87.383 105.42 87.424V88.8443H102.854V87.424C103.086 87.383 103.304 87.342 103.523 87.2874V85.1843H98.9636V87.2874C99.2639 87.3694 99.5778 87.424 99.8917 87.465V92.4633C99.6051 92.5179 99.2502 92.5726 98.9636 92.6408V94.744H103.523V92.6408C103.304 92.5862 103.086 92.5452 102.854 92.5043V91.1386H105.42V92.5043C105.188 92.5452 104.97 92.5862 104.737 92.6408V94.744H109.31V92.6408C109.024 92.5726 108.669 92.5179 108.368 92.4633V87.465C108.696 87.424 108.996 87.3694 109.31 87.2874V85.1843Z" fill="black"/>
<path d="M113.928 94.9352C116.699 94.9352 117.531 94.0748 117.558 91.2479V90.9884C117.558 88.0795 116.739 87.1918 113.914 87.1782H113.477C110.542 87.1782 109.696 88.0659 109.696 90.9884V91.2479C109.723 94.0748 110.583 94.9352 113.477 94.9352H113.928ZM113.382 92.9276C112.754 92.9276 112.535 92.7091 112.535 92.0946V90.1007C112.535 89.4179 112.754 89.1857 113.382 89.1857H113.846C114.501 89.1857 114.719 89.4179 114.719 90.1007V92.0946C114.719 92.7091 114.474 92.9276 113.846 92.9276H113.382Z" fill="black"/>
<path d="M121.578 85.1843H118.029V87.1645C118.274 87.2328 118.52 87.2874 118.738 87.3284V92.6135C118.506 92.6545 118.261 92.6955 118.015 92.7638V94.744H122.315V92.7638C122.069 92.6955 121.823 92.6545 121.578 92.6135V85.1843Z" fill="black"/>
<path d="M122.852 89.7047C122.852 90.7699 123.261 91.4527 124.981 91.7532C126.878 92.0946 127.015 92.1492 127.015 92.5043V92.5862C127.015 92.873 126.837 93.0642 126.455 93.0642H126.087C125.732 93.0642 125.322 92.9003 125.199 92.5726L125.131 92.1082H122.852V94.225C123.78 94.8259 125.158 94.9352 126.182 94.9352H126.714C128.817 94.9352 129.813 94.1567 129.813 92.4087V91.917C129.813 91.043 129.267 90.4285 127.725 90.1417C125.786 89.7729 125.527 89.7729 125.527 89.4588V89.3906C125.527 89.1311 125.745 89.0355 126.237 89.0355C126.496 89.0355 126.783 89.0491 127.042 89.0901L127.233 89.7456H129.554V87.6152C128.598 87.3011 127.247 87.1782 126.223 87.1782H125.964C123.848 87.1782 122.852 87.8883 122.852 89.4315V89.7047Z" fill="black"/>
<path d="M134.428 92.5316C133.828 92.5316 133.8 92.3814 133.8 91.3844V89.4179H135.82V87.3557H133.8V85.3618C132.899 85.3755 132.626 85.3618 131.493 85.6077V86.1266C131.493 86.9324 131.002 87.5332 130.442 87.5332H130.128V89.4179H130.961V92.9003C130.961 94.1704 131.698 94.9352 132.858 94.9352H133.036C134.005 94.9352 135.315 94.5801 135.889 94.1567V92.4906C135.438 92.5316 135.029 92.5316 134.565 92.5316H134.428Z" fill="black"/>
<path d="M139.932 87.1782C137.516 87.1782 136.369 88.1615 136.369 90.3056V91.4937C136.369 94.0202 137.311 94.9352 139.973 94.9352H140.492C141.57 94.9352 142.621 94.662 143.536 94.0748V92.1765H141.27L141.202 92.5452C141.092 92.9003 140.847 93.0369 140.437 93.0369H139.959C139.55 93.0369 139.181 92.8457 139.181 92.2858V91.8488H143.74V90.169C143.74 88.1205 142.689 87.1782 140.396 87.1782H139.932ZM141.174 90.3738H139.181V89.7456C139.181 89.2813 139.509 89.0082 140.014 89.0082H140.396C140.847 89.0082 141.174 89.2676 141.174 89.7047V90.3738Z" fill="black"/>
<path d="M146.485 86.8777C147.345 86.8777 148.041 86.3178 148.041 85.4574C148.041 84.5971 147.345 84.0371 146.485 84.0371C145.625 84.0371 144.915 84.5971 144.915 85.4574C144.915 86.3178 145.625 86.8777 146.485 86.8777ZM147.904 87.3557H144.355V89.3359C144.601 89.4042 144.847 89.4588 145.065 89.4998V92.6135C144.833 92.6545 144.587 92.6955 144.342 92.7638V94.744H148.641V92.7638C148.396 92.6955 148.15 92.6545 147.904 92.6135V87.3557Z" fill="black"/>
<path d="M157.249 89.213C157.249 87.9429 156.499 87.1782 155.325 87.1782H155.147C154.219 87.1782 153.332 87.7791 152.677 88.2707V87.3557H149.128V89.3359C149.373 89.4042 149.619 89.4588 149.837 89.4998V92.6135C149.605 92.6545 149.36 92.6955 149.114 92.7638V94.744H153.414V92.7638C153.168 92.6955 152.922 92.6545 152.677 92.6135V89.8685C152.99 89.7047 153.332 89.5817 153.605 89.5817H153.769C154.396 89.5817 154.424 89.732 154.424 90.7835V94.744H158V92.7638C157.672 92.6818 157.44 92.6272 157.249 92.5862V89.213Z" fill="black"/>
<path d="M25.2251 103.545H23.1594V103.873C23.4506 103.891 23.7145 103.9 23.9784 103.909V109.554C23.7145 109.563 23.4506 109.572 23.1685 109.59V109.918H25.2251V109.59C24.9521 109.572 24.6973 109.563 24.4425 109.554V106.859H26.0986L27.9368 109.572C27.7275 109.572 27.4818 109.581 27.2543 109.59V109.918H29.32V109.59C29.0106 109.572 28.7285 109.563 28.4464 109.554L26.4535 106.631L28.41 103.9C28.6739 103.9 28.9378 103.891 29.229 103.873V103.545H27.1997V103.873C27.4545 103.882 27.6911 103.9 27.9186 103.9L26.0713 106.467H24.4425V103.909C24.6973 103.9 24.9521 103.891 25.2251 103.873V103.545Z" fill="#CCA138"/>
<path d="M33.5176 109.563V105.311H32.2709V105.621C32.7805 105.648 32.9989 105.657 33.0808 105.666V108.625C32.3892 109.153 31.7249 109.545 31.0424 109.545H30.9332C30.278 109.545 30.1415 109.344 30.1415 108.507V105.311H28.8948V105.621C29.4044 105.648 29.6228 105.657 29.7047 105.666V108.698C29.7047 109.681 29.9777 109.918 30.7876 109.918H30.8877C31.7067 109.918 32.3983 109.463 33.0808 108.944V109.918H34.2729V109.599L33.5176 109.563Z" fill="#CCA138"/>
<path d="M35.8932 103.545H34.7831V103.854C35.0106 103.873 35.229 103.882 35.4565 103.9V109.572C35.229 109.581 35.0015 109.59 34.7285 109.609V109.918H36.6212V109.609C36.3482 109.59 36.1207 109.581 35.8932 109.572V103.545Z" fill="#CCA138"/>
<path d="M38.5551 109.627C38.0364 109.627 37.8999 109.408 37.8999 108.607V105.657H39.3104V105.311H37.8999V103.873C37.7543 103.873 37.6542 103.891 37.4904 103.918V105.147C37.4904 105.257 37.4631 105.311 37.3448 105.311H36.8261V105.657H37.4631V108.78C37.4631 109.69 37.7088 110 38.3822 110H38.4732C38.8372 110 39.1101 109.973 39.4923 109.873V109.59C39.1557 109.627 38.9646 109.627 38.637 109.627H38.5551Z" fill="#CCA138"/>
<path d="M44.6366 109.563V105.311H43.3899V105.621C43.8995 105.648 44.1179 105.657 44.1998 105.666V108.625C43.5082 109.153 42.8439 109.545 42.1614 109.545H42.0522C41.397 109.545 41.2605 109.344 41.2605 108.507V105.311H40.0138V105.621C40.5234 105.648 40.7418 105.657 40.8237 105.666V108.698C40.8237 109.681 41.0967 109.918 41.9066 109.918H42.0067C42.8257 109.918 43.5173 109.463 44.1998 108.944V109.918H45.3919V109.599L44.6366 109.563Z" fill="#CCA138"/>
<path d="M46.9678 105.311H45.8576V105.621C46.0851 105.639 46.3035 105.648 46.531 105.657V109.572C46.3035 109.581 46.076 109.59 45.803 109.609V109.918H47.714V109.609C47.4228 109.59 47.1953 109.581 46.9678 109.572V106.549C47.4774 105.894 47.9324 105.694 48.533 105.694C48.6695 105.684 48.8151 105.684 48.9607 105.684V105.284H48.6331C47.9688 105.284 47.5229 105.512 46.9678 106.213V105.311Z" fill="#CCA138"/>
<path d="M55.4028 109.563V103.545H54.1379V103.836C54.693 103.864 54.9023 103.873 54.966 103.873V105.785C54.0833 105.275 53.8649 105.202 53.0277 105.202H52.8548C52.0631 105.202 51.5899 105.703 51.5899 106.695V108.461C51.5899 109.536 52.054 109.991 52.8457 109.991H53.0186C53.8376 109.991 54.3017 109.672 54.966 109.162V109.918H56.1308V109.599L55.4028 109.563ZM53.0004 109.618C52.3452 109.618 52.0267 109.217 52.0267 108.343V106.804C52.0267 106.012 52.3179 105.566 52.9822 105.566H53.1642C53.8558 105.566 54.0833 105.593 54.966 106.103V108.862C54.2926 109.372 53.8467 109.618 53.1642 109.618H53.0004Z" fill="#CCA138"/>
<path d="M58.4532 105.202C57.2702 105.202 56.5877 105.83 56.5877 106.941V108.288C56.5877 109.436 57.1701 110 58.3986 110H58.799C59.4451 110 60.0821 109.763 60.3824 109.253V108.971H60.0548L60.0275 109.062C59.8 109.499 59.345 109.663 58.7899 109.663H58.3804C57.5068 109.663 57.0154 109.235 57.0154 108.361V107.815H60.5098V106.85C60.5098 105.757 59.9274 105.202 58.7444 105.202H58.4532ZM60.1094 107.496H57.0154V106.904C57.0154 106.012 57.5523 105.53 58.4532 105.53H58.7444C59.618 105.53 60.1094 105.967 60.1094 106.823V107.496Z" fill="#CCA138"/>
<path d="M61.3998 106.431C61.3998 107.187 61.7365 107.36 63.0651 107.615C64.2663 107.842 64.603 107.924 64.603 108.534V108.68C64.603 109.417 64.2299 109.672 63.4109 109.672H63.0833C62.7739 109.672 61.9913 109.645 61.7547 109.226L61.7183 108.607H61.3998V109.445C61.7274 109.954 62.7102 110 63.0742 110H63.4291C64.4665 110 65.0216 109.645 65.0216 108.698V108.516C65.0216 107.706 64.6121 107.56 63.3836 107.314C62.1187 107.059 61.8093 107.023 61.8093 106.395V106.322C61.8093 105.757 62.2097 105.521 63.147 105.521C63.6293 105.521 64.1298 105.575 64.5302 105.785L64.5848 106.477H64.9306V105.566C64.4028 105.293 63.5656 105.202 63.2107 105.202H63.0651C61.9731 105.202 61.3998 105.539 61.3998 106.285V106.431Z" fill="#CCA138"/>
<path d="M74.1513 103.545H72.1403V103.873C72.4133 103.882 72.659 103.9 72.8956 103.9V109.253L69.1828 103.545H67.8451V103.873L68.7096 103.909V109.554C68.4366 109.563 68.1545 109.572 67.8542 109.59V109.918H69.8562V109.59C69.6014 109.581 69.3648 109.563 69.1282 109.563V104.237L72.7864 109.918H73.3232V103.909C73.5872 103.9 73.851 103.891 74.1513 103.873V103.545Z" fill="#CCA138"/>
<path d="M76.8646 110C78.0658 110 78.6573 109.426 78.6573 108.297V106.914C78.6573 105.776 78.0749 105.202 76.8646 105.202H76.355C75.1356 105.202 74.5441 105.776 74.5441 106.914V108.297C74.5441 109.426 75.1447 110 76.355 110H76.8646ZM76.3459 109.654C75.4541 109.654 74.9809 109.208 74.9809 108.352V106.85C74.9809 105.994 75.4541 105.548 76.3459 105.548H76.8555C77.7473 105.548 78.2205 105.994 78.2205 106.85V108.352C78.2205 109.208 77.7473 109.654 76.8555 109.654H76.3459Z" fill="#CCA138"/>
<path d="M80.4012 105.311H79.291V105.621C79.5185 105.639 79.7369 105.648 79.9644 105.657V109.572C79.7369 109.581 79.5094 109.59 79.2364 109.609V109.918H81.1474V109.609C80.8562 109.59 80.6287 109.581 80.4012 109.572V106.549C80.9108 105.894 81.3658 105.694 81.9664 105.694C82.1029 105.684 82.2485 105.684 82.3941 105.684V105.284H82.0665C81.4022 105.284 80.9563 105.512 80.4012 106.213V105.311Z" fill="#CCA138"/>
<path d="M86.5932 109.563V103.545H85.3283V103.836C85.8834 103.864 86.0927 103.873 86.1564 103.873V105.785C85.2737 105.275 85.0553 105.202 84.2181 105.202H84.0452C83.2535 105.202 82.7803 105.703 82.7803 106.695V108.461C82.7803 109.536 83.2444 109.991 84.0361 109.991H84.209C85.028 109.991 85.4921 109.672 86.1564 109.162V109.918H87.3212V109.599L86.5932 109.563ZM84.1908 109.618C83.5356 109.618 83.2171 109.217 83.2171 108.343V106.804C83.2171 106.012 83.5083 105.566 84.1726 105.566H84.3546C85.0462 105.566 85.2737 105.593 86.1564 106.103V108.862C85.483 109.372 85.0371 109.618 84.3546 109.618H84.1908Z" fill="#CCA138"/>
<path d="M89.6437 105.202C88.4607 105.202 87.7782 105.83 87.7782 106.941V108.288C87.7782 109.436 88.3606 110 89.5891 110H89.9894C90.6355 110 91.2725 109.763 91.5728 109.253V108.971H91.2452L91.2179 109.062C90.9904 109.499 90.5354 109.663 89.9803 109.663H89.5709C88.6973 109.663 88.2059 109.235 88.2059 108.361V107.815H91.7002V106.85C91.7002 105.757 91.1178 105.202 89.9348 105.202H89.6437ZM91.2998 107.496H88.2059V106.904C88.2059 106.012 88.7428 105.53 89.6437 105.53H89.9348C90.8084 105.53 91.2998 105.967 91.2998 106.823V107.496Z" fill="#CCA138"/>
<path d="M96.8247 106.413C96.8247 105.457 96.5335 105.202 95.7418 105.202H95.6417C94.8227 105.202 94.1311 105.657 93.4486 106.185V105.311H92.3384V105.621C92.5659 105.639 92.7843 105.648 93.0118 105.657V109.572C92.7843 109.581 92.5568 109.59 92.2838 109.609V109.918H94.1766V109.609C93.9036 109.59 93.6761 109.581 93.4486 109.572V106.486C94.1493 105.958 94.8045 105.566 95.487 105.566H95.5962C96.2514 105.566 96.3879 105.766 96.3879 106.613V109.918H97.6346V109.609C97.125 109.581 96.9066 109.572 96.8247 109.563V106.413Z" fill="#CCA138"/>
<path d="M98.1835 106.431C98.1835 107.187 98.5202 107.36 99.8488 107.615C101.05 107.842 101.387 107.924 101.387 108.534V108.68C101.387 109.417 101.014 109.672 100.195 109.672H99.867C99.5576 109.672 98.775 109.645 98.5384 109.226L98.502 108.607H98.1835V109.445C98.5111 109.954 99.4939 110 99.8579 110H100.213C101.25 110 101.805 109.645 101.805 108.698V108.516C101.805 107.706 101.396 107.56 100.167 107.314C98.9024 107.059 98.593 107.023 98.593 106.395V106.322C98.593 105.757 98.9934 105.521 99.9307 105.521C100.413 105.521 100.914 105.575 101.314 105.785L101.369 106.477H101.714V105.566C101.187 105.293 100.349 105.202 99.9944 105.202H99.8488C98.7568 105.202 98.1835 105.539 98.1835 106.285V106.431Z" fill="#CCA138"/>
<path d="M102.901 109.954C103.111 109.954 103.22 109.854 103.22 109.663C103.22 109.463 103.111 109.363 102.901 109.363C102.701 109.363 102.583 109.463 102.583 109.663C102.583 109.854 102.701 109.954 102.901 109.954Z" fill="#CCA138"/>
<path fill-rule="evenodd" clip-rule="evenodd" d="M24.7041 3.75635L90.3549 18.1346L87.1472 57.132L6.09166 21.7005L24.7041 3.75635ZM23.6432 0L0 22.7922L90.1805 62.2138L94.0298 15.4146L23.6432 0Z" fill="#CCA138"/>
</svg>
