<?xml version="1.0" standalone="no"?>
<!DOCTYPE svg PUBLIC "-//W3C//DTD SVG 20010904//EN"
 "http://www.w3.org/TR/2001/REC-SVG-20010904/DTD/svg10.dtd">
<svg version="1.0" xmlns="http://www.w3.org/2000/svg"
 width="992.000000pt" height="992.000000pt" viewBox="0 0 992.000000 992.000000"
 preserveAspectRatio="xMidYMid meet">
<metadata>
Created by potrace 1.14, written by Peter Selinger 2001-2017
</metadata>
<g transform="translate(0.000000,992.000000) scale(0.100000,-0.100000)"
fill="#000000" stroke="none">
<path d="M2415 8194 c-44 -42 -176 -169 -294 -283 -332 -320 -731 -705 -836
-806 -64 -61 -425 -410 -540 -520 -45 -44 -174 -168 -285 -275 -112 -107 -261
-251 -332 -319 l-128 -124 83 -37 c84 -37 108 -47 117 -48 5 0 103 -47 132
-63 10 -5 25 -9 33 -9 8 0 15 -4 15 -10 0 -5 7 -10 15 -10 8 0 23 -4 33 -10 9
-5 266 -118 570 -250 531 -231 604 -263 682 -298 19 -9 37 -17 40 -17 3 -1 23
-10 45 -20 22 -10 42 -19 45 -20 18 -6 58 -24 175 -75 22 -10 78 -34 125 -55
47 -20 105 -46 130 -57 25 -11 54 -24 65 -28 11 -5 45 -19 75 -33 30 -14 89
-39 130 -57 41 -18 93 -40 115 -50 22 -10 74 -32 115 -50 41 -18 103 -45 138
-61 35 -16 66 -29 70 -29 4 0 21 -7 37 -16 17 -8 73 -34 125 -56 52 -22 118
-51 145 -63 28 -13 156 -69 285 -125 129 -56 253 -110 275 -120 70 -31 120
-53 125 -55 12 -4 59 -24 100 -43 50 -23 287 -127 337 -148 18 -8 34 -13 36
-12 2 2 11 -3 20 -11 10 -7 17 -10 17 -5 0 5 4 4 8 -1 4 -6 43 -26 87 -44 44
-19 108 -47 142 -63 34 -15 63 -28 66 -28 3 0 39 -16 80 -35 41 -19 77 -35 80
-35 3 0 40 -16 81 -35 42 -19 79 -35 82 -35 3 0 33 -13 67 -29 86 -40 141 -64
217 -96 36 -15 90 -38 120 -52 30 -14 69 -31 85 -38 17 -7 64 -27 105 -45 41
-18 98 -43 125 -55 28 -13 120 -53 205 -90 85 -37 179 -78 208 -91 29 -13 55
-24 57 -24 3 0 33 -13 67 -29 96 -44 162 -74 168 -75 6 -1 175 -75 258 -112
29 -13 54 -24 56 -24 3 0 38 -16 79 -35 41 -19 77 -35 80 -35 3 0 34 -13 69
-29 35 -16 97 -43 138 -61 73 -31 114 -49 203 -89 23 -10 168 -74 322 -141
154 -67 298 -130 320 -140 79 -35 203 -89 355 -155 85 -37 173 -75 195 -85 22
-10 74 -32 115 -50 77 -33 161 -71 215 -95 29 -13 85 -37 95 -40 3 -1 27 -12
55 -24 27 -12 66 -29 85 -37 19 -9 49 -22 65 -29 107 -49 170 -75 181 -75 8 0
14 -4 14 -10 0 -5 7 -10 15 -10 8 0 23 -4 33 -9 17 -10 47 -20 59 -21 8 -1 11
14 19 125 3 50 8 106 9 125 1 19 6 76 9 125 4 50 9 106 12 125 2 19 6 67 9
105 3 39 7 95 10 125 3 30 7 89 10 130 3 41 8 100 11 130 2 30 7 81 9 113 3
32 7 82 10 110 2 29 7 86 10 127 3 41 8 100 11 130 9 106 12 146 19 230 3 47
8 105 10 130 3 25 7 81 10 125 2 44 5 80 6 80 0 0 2 18 4 40 2 22 6 74 10 115
3 41 8 95 10 120 2 25 6 77 9 115 3 39 8 99 11 135 2 36 7 90 10 120 7 74 14
161 20 245 3 39 7 88 9 110 2 22 7 78 11 125 3 47 8 105 10 130 2 25 7 77 10
115 3 39 7 95 10 125 18 198 26 297 31 365 2 33 6 87 9 120 3 33 7 87 10 120
3 33 7 87 10 120 5 56 10 126 20 255 2 30 7 84 10 120 4 36 9 88 11 115 2 28
5 78 8 112 5 67 4 69 -37 77 -15 3 -35 7 -45 10 -9 3 -28 7 -42 10 -24 4 -107
22 -280 61 -41 9 -82 18 -90 20 -47 11 -308 67 -325 70 -11 2 -51 11 -90 20
-38 9 -81 18 -94 21 -37 8 -154 34 -171 38 -24 6 -223 48 -245 52 -11 2 -92
20 -180 39 -88 20 -168 38 -178 40 -10 2 -26 6 -35 9 -9 3 -33 8 -52 11 -19 3
-63 12 -96 20 -34 8 -73 16 -85 19 -24 5 -246 53 -284 62 -11 3 -31 7 -45 10
-51 11 -318 69 -435 95 -49 11 -100 22 -112 24 -12 2 -51 10 -85 19 -35 8 -76
18 -93 21 -16 2 -41 7 -55 11 -27 6 -91 20 -128 28 -13 3 -31 7 -40 10 -9 3
-30 8 -47 11 -16 2 -41 7 -55 10 -95 21 -117 26 -135 30 -32 8 -68 16 -95 21
-14 3 -63 13 -110 24 -47 10 -148 33 -225 50 -77 17 -151 33 -165 36 -40 7
-162 34 -200 45 -19 5 -47 11 -62 14 -64 11 -84 16 -108 21 -14 4 -34 8 -45 9
-11 2 -51 11 -90 20 -126 30 -128 31 -185 40 -25 4 -49 10 -55 13 -5 4 -19 8
-30 9 -41 6 -131 25 -160 33 -16 5 -47 11 -68 15 -21 3 -47 10 -58 15 -10 6
-19 9 -19 6 0 -2 -39 5 -87 16 -49 10 -97 21 -108 23 -35 8 -119 25 -143 30
-13 2 -31 7 -40 9 -9 3 -57 14 -107 25 -49 10 -144 31 -210 46 -66 14 -129 28
-140 31 -11 2 -63 13 -115 24 -52 11 -138 30 -190 41 -52 11 -111 24 -130 29
-19 5 -48 12 -65 14 -16 3 -39 8 -50 10 -73 17 -438 97 -457 100 -13 3 -23 5
-23 6 0 1 -7 3 -15 5 -8 1 -51 10 -95 20 -44 10 -89 18 -101 19 -11 2 -24 5
-30 8 -5 3 -25 8 -44 12 -33 6 -39 2 -115 -70z m255 -334 c19 -5 46 -11 60
-14 14 -2 55 -11 93 -20 37 -9 82 -18 100 -21 17 -3 48 -10 67 -15 19 -5 49
-12 65 -14 51 -9 76 -15 95 -21 21 -7 51 -13 100 -21 19 -3 38 -8 41 -10 3 -2
20 -6 37 -9 61 -10 174 -35 181 -39 3 -3 26 -7 51 -11 25 -4 47 -8 51 -10 3
-2 19 -7 35 -9 16 -3 40 -8 54 -11 14 -3 36 -8 50 -11 14 -3 52 -11 85 -19 51
-12 141 -32 235 -51 14 -3 41 -9 60 -14 19 -5 46 -11 60 -14 14 -2 69 -14 124
-26 54 -12 107 -23 118 -25 11 -2 27 -6 36 -9 9 -3 35 -8 57 -12 22 -3 43 -8
46 -10 6 -3 60 -15 89 -18 8 -2 24 -5 35 -9 11 -3 31 -8 45 -11 14 -2 57 -12
95 -20 39 -9 79 -18 90 -20 11 -2 31 -6 45 -10 14 -3 39 -8 55 -12 17 -3 48
-10 70 -14 22 -5 76 -16 120 -25 44 -9 87 -19 95 -22 8 -3 24 -8 35 -10 17 -3
122 -25 180 -38 11 -3 43 -9 70 -15 28 -6 77 -18 110 -25 33 -8 71 -16 85 -19
36 -7 70 -15 105 -23 17 -4 32 -7 35 -8 3 0 21 -4 40 -8 49 -10 78 -16 130
-28 25 -5 55 -11 67 -13 11 -2 30 -7 42 -11 11 -3 33 -8 48 -11 16 -3 100 -21
188 -40 88 -20 171 -38 185 -40 14 -3 41 -9 60 -14 19 -5 46 -11 60 -14 14 -2
111 -23 215 -46 105 -23 199 -44 210 -46 11 -1 52 -10 90 -19 95 -22 153 -35
195 -41 19 -3 38 -8 41 -10 5 -3 87 -21 218 -49 9 -2 50 -11 91 -20 86 -20
243 -54 280 -61 14 -3 53 -12 88 -20 34 -8 74 -17 90 -19 15 -3 68 -14 117
-26 50 -11 99 -22 110 -24 11 -3 31 -7 45 -10 14 -3 34 -7 45 -9 11 -3 63 -14
115 -26 52 -12 109 -24 125 -27 17 -2 64 -13 105 -23 41 -10 89 -21 105 -23
17 -3 59 -12 95 -20 36 -9 88 -21 115 -27 28 -6 61 -13 75 -16 14 -3 35 -7 47
-9 11 -2 30 -6 42 -10 11 -3 33 -9 48 -12 16 -3 35 -6 43 -8 8 -2 19 -4 23 -4
8 -1 6 -35 -8 -211 -3 -30 -7 -83 -10 -117 -3 -35 -7 -91 -10 -125 -10 -116
-14 -163 -20 -233 -3 -38 -8 -95 -10 -125 -3 -30 -7 -89 -10 -130 -3 -41 -8
-95 -11 -120 -3 -25 -7 -76 -9 -115 -2 -38 -7 -95 -10 -125 -3 -30 -7 -86 -10
-125 -3 -38 -7 -88 -9 -110 -2 -22 -7 -78 -10 -125 -4 -47 -9 -101 -11 -120
-3 -19 -7 -75 -11 -125 -10 -137 -23 -301 -29 -365 -2 -19 -6 -73 -10 -120
-11 -150 -14 -184 -19 -240 -3 -30 -8 -89 -11 -130 -3 -41 -8 -97 -10 -125 -3
-27 -7 -79 -10 -115 -3 -36 -7 -90 -10 -120 -7 -76 -14 -162 -20 -250 -3 -41
-8 -95 -10 -120 -5 -49 -11 -119 -20 -245 -4 -44 -8 -96 -10 -115 -6 -63 -18
-214 -18 -238 -1 -26 -10 -25 -105 19 -35 16 -65 29 -67 29 -2 0 -32 13 -67
29 -35 16 -112 50 -173 76 -60 26 -116 51 -122 57 -7 6 -13 7 -13 4 0 -4 -12
0 -27 8 -16 8 -48 23 -73 34 -97 42 -126 55 -154 68 -16 8 -35 14 -43 14 -7 0
-13 5 -13 10 0 6 -5 10 -12 10 -7 0 -198 81 -424 180 -227 99 -417 180 -423
180 -6 0 -11 5 -11 10 0 6 -6 10 -13 10 -8 0 -27 6 -43 14 -16 8 -47 22 -69
31 -22 10 -53 23 -70 30 -16 8 -84 37 -150 65 -66 29 -196 86 -290 127 -93 41
-179 78 -190 83 -11 5 -45 19 -75 33 -30 14 -140 62 -245 107 -104 45 -208 90
-230 100 -22 10 -94 41 -160 70 -66 29 -144 63 -173 76 -29 13 -54 24 -56 24
-2 0 -30 12 -62 27 -33 15 -61 28 -64 29 -5 1 -38 15 -125 54 -22 10 -74 32
-115 50 -41 18 -93 40 -115 50 -22 10 -94 41 -160 70 -66 29 -138 60 -160 70
-22 10 -94 41 -160 70 -66 29 -138 60 -160 70 -22 10 -94 41 -160 69 -66 29
-133 58 -150 66 -16 8 -102 45 -190 83 -88 39 -185 81 -215 95 -30 14 -95 42
-144 62 -49 20 -96 40 -105 45 -55 27 -115 54 -124 56 -10 2 -138 57 -342 148
-16 8 -104 46 -195 86 -91 39 -183 80 -205 90 -22 10 -125 55 -230 100 -169
73 -479 208 -560 244 -16 8 -84 37 -150 66 -66 29 -144 63 -173 76 -29 13 -54
24 -57 24 -2 0 -43 18 -90 40 -47 22 -93 40 -101 40 -8 0 -14 5 -14 10 0 6 -6
10 -13 10 -8 0 -27 6 -43 14 -16 8 -135 60 -264 116 -295 128 -318 139 -354
156 -16 8 -35 14 -43 14 -33 0 -26 7 237 260 106 102 223 214 260 250 37 36
163 157 280 270 117 113 243 234 280 270 128 124 486 468 603 581 65 63 155
149 199 192 44 42 88 77 97 77 9 0 32 -4 51 -10z"/>
</g>
</svg>
